<svg xmlns="http://www.w3.org/2000/svg" xmlns:xlink="http://www.w3.org/1999/xlink" version="1.1" id="Camada_1" x="0px" y="0px" style="enable-background:new 0 0 841.89 595.28;" xml:space="preserve" viewBox="181.02 89.26 480.45 432.01">
<style type="text/css">
	.st0{fill:#222323;}
</style>
<g>
	<path class="st0" d="M660.85,437.82c-0.03-4.1,1.87-9.53-0.84-11.91c-2.29-2.01-7.59-0.58-11.56-0.68c-0.17,0-0.34-0.02-0.5,0   c-2.36,0.36-3.18-0.55-3.11-3c0.13-4.13,1.48-9.67-0.6-12.06c-2.43-2.78-8.11-0.85-12.37-0.87c-2.47-0.01-3.07-0.83-3.01-3.15   c0.15-5.66,0.08-11.33,0.04-16.99c-0.03-3.8,1.22-8.73-0.67-11.09c-2.01-2.5-7.19-1-10.91-0.71c-4.04,0.31-4.58-1.3-4.47-4.78   c0.25-7.99-0.01-15.99,0.13-23.98c0.05-2.51-0.48-3.61-3.25-3.41c-3.31,0.25-6.66-0.06-9.99,0.1c-2.14,0.1-2.97-0.53-2.85-2.78   c0.17-3.49-0.08-7,0.09-10.49c0.1-2.21-0.64-2.91-2.82-2.81c-3.49,0.16-7-0.09-10.49,0.09c-2.27,0.11-2.82-0.75-2.77-2.86   c0.13-5.16,0.15-10.33,0.01-15.49c-0.12-4.44,1.85-10.14-0.85-12.93c-2.06-2.12-7.85-0.85-11.96-0.68   c-2.83,0.12-3.27-1.03-3.19-3.47c0.16-5.33,0.17-10.66,0.01-15.99c-0.13-4.1,1.86-9.53-0.84-11.91c-2.28-2.01-7.59-0.59-11.55-0.69   c-0.17,0-0.34-0.02-0.5,0c-2.34,0.35-3.2-0.51-3.12-2.98c0.14-4.13,1.49-9.67-0.59-12.06c-2.43-2.79-8.11-0.85-12.36-0.88   c-2.45-0.01-3.09-0.79-3.03-3.14c0.15-5.66,0.08-11.33,0.04-16.99c-0.03-3.8,1.23-8.73-0.66-11.1c-2.01-2.51-7.15-0.56-10.92-0.84   c-0.33-0.02-0.67-0.05-1,0c-3.01,0.52-3.51-0.99-3.46-3.65c0.15-8.16-0.07-16.33,0.12-24.48c0.07-2.92-0.47-4.28-3.75-3.93   c-2.96,0.32-6-0.08-8.98,0.11c-2.54,0.16-3.58-0.55-3.38-3.27c0.24-3.31-0.06-6.66,0.1-9.99c0.11-2.18-0.6-2.93-2.81-2.83   c-3.49,0.17-7-0.08-10.49,0.09c-2.25,0.11-2.83-0.71-2.78-2.85c0.13-5.49,0.15-11,0.01-16.49c-0.11-4.11,1.81-9.53-0.79-11.94   c-2.19-2.03-7.57-0.92-11.5-0.67c-3.31,0.22-3.79-1.09-3.73-3.97c0.18-8.16-0.04-16.33,0.12-24.48c0.05-2.69-0.49-3.86-3.48-3.69   c-3.96,0.22-9.22,1.46-11.61-0.52c-2.82-2.34-0.84-7.79-0.87-11.87c-0.02-2.79-0.75-3.62-3.6-3.6c-18.99,0.12-37.98,0.12-56.96,0   c-2.85-0.02-3.69,0.79-3.57,3.6c0.17,3.96,1.4,9.26-0.61,11.56c-2.37,2.72-7.81,0.84-11.9,0.8c-2.98-0.03-3.53,1.03-3.48,3.72   c0.16,7.99-0.11,16,0.14,23.98c0.1,3.34-0.54,4.89-4.24,4.45c-2.79-0.33-5.67,0.09-8.48-0.11c-2.53-0.18-3.53,0.5-3.41,3.25   c0.23,5.15,0.16,10.33,0.04,15.49c-0.1,4.29,1.79,9.76-0.73,12.52c-2.35,2.58-7.86,0.72-11.97,0.69c-2.63-0.02-3.34,0.76-3.34,3.36   c0.01,4.11,1.86,9.5-0.71,11.99c-2.55,2.47-7.91,0.73-12.03,0.64c-2.78-0.06-3.31,0.95-3.23,3.45c0.17,5.33,0.17,10.66,0.01,15.99   c-0.12,4.1,1.84,9.53-0.82,11.92c-2.25,2.02-7.58,0.79-11.53,0.65c-2.72-0.1-3.81,0.55-3.67,3.51c0.24,5.15,0.19,10.33,0.03,15.49   c-0.13,4.26,1.86,9.77-0.89,12.41c-2.11,2.03-7.58,0.76-11.54,0.58c-2.84-0.13-3.71,0.76-3.59,3.59c0.18,3.96,1.41,9.26-0.59,11.57   c-2.37,2.73-7.81,0.84-11.9,0.8c-2.95-0.02-3.58,0.99-3.49,3.7c0.19,5.82,0.06,11.66,0.06,17.49c0,10.89,0,10.89-10.64,10.89   c-0.33,0-0.67,0.05-1-0.01c-3.37-0.59-4.59,0.55-4.45,4.2c0.3,8.15,0,16.32,0.15,24.48c0.04,2.53-0.56,3.58-3.28,3.37   c-3.15-0.24-6.34,0.11-9.49-0.11c-2.62-0.18-3.37,0.69-3.36,3.32c0.02,4.11,1.85,9.5-0.7,11.99c-2.54,2.48-7.91,0.73-12.02,0.65   c-2.76-0.05-3.33,0.92-3.25,3.43c0.17,5.32,0.17,10.66,0.01,15.99c-0.12,4.11,1.83,9.53-0.81,11.93   c-2.23,2.02-7.59,0.91-11.52,0.63c-3.39-0.24-3.78,1.21-3.67,4.02c0.19,5.32,0.18,10.66,0.01,15.99   c-0.12,3.93,1.79,9.14-0.84,11.42c-2.21,1.92-7.29,0.81-11.08,0.58c-3.26-0.2-4.33,0.78-4.11,4.09c0.25,3.78,1.36,8.85-0.56,11.09   c-2.27,2.65-7.5,0.91-11.41,0.78c-3.41-0.11-4.05,1.07-4.02,4.2c0.14,18.32,0.23,36.65-0.05,54.97c-0.07,4.35,1.26,5.12,5.24,5.02   c10.86-0.28,11.08-0.08,10.76,10.56c-0.13,4.24,0.75,5.64,5.32,5.47c10.77-0.4,11.03-0.11,10.66,10.61   c-0.15,4.44,1.07,5.37,5.41,5.36c67.46-0.15,134.92-0.11,202.37-0.11c67.79,0,135.58-0.02,203.37,0.05c3.2,0,5.32,0,4.91-4.31   c-0.36-3.72-1.72-8.71,0.62-11.02c2.33-2.3,7.28-0.85,11.04-0.61c3.63,0.23,4.55-1.02,4.28-4.44c-0.28-3.63-1.38-8.41,0.42-10.68   c2.14-2.7,7.18-1.1,10.87-0.84c4.25,0.3,4.74-1.45,4.7-5.05C660.8,468.8,660.97,453.31,660.85,437.82z M593.97,457.3   c-4.26,0.01-9.93-1.91-12.37,0.86c-2.09,2.38-0.84,7.93-0.59,12.05c0.22,3.63-2.02,3-4.12,3c-28.32,0-56.64,0-84.96,0   c-23.65,0-47.31,0-70.96,0c-51.64,0-103.28-0.06-154.92,0.11c-4.22,0.01-5.2-1.06-5.09-5.17c0.3-10.91,0.09-11.05-10.99-10.86   c-3.64,0.06-5.22-0.52-5.01-4.73c0.39-7.98,0.2-15.99,0.06-23.98c-0.04-2.5,0.47-3.5,3.24-3.44c4.11,0.08,9.61,1.86,12-0.65   c2.6-2.72,0.67-8.21,0.77-12.49c0.14-5.33,0.13-10.66-0.01-15.99c-0.06-2.19,0.62-2.92,2.82-2.82c3.49,0.16,7-0.09,10.49,0.09   c2.26,0.11,2.87-0.72,2.77-2.86c-0.15-3.32,0.15-6.68-0.1-9.99c-0.21-2.78,0.91-3.55,3.41-3.21c0.82,0.11,1.66,0.02,2.5,0.02   c10.14,0,10.14,0,10.14-10.39c0-6,0.13-12-0.06-17.99c-0.08-2.71,0.55-4.12,3.5-3.61c0.16,0.03,0.33,0.02,0.5,0   c3.92-0.34,9.29,1.79,11.39-0.88c1.96-2.49,0.62-7.63,0.66-11.6c0.04-5.5,0.12-11-0.04-16.49c-0.07-2.41,0.68-3.4,3.07-3.02   c0.16,0.03,0.33,0.01,0.5,0c3.97-0.09,9.43,1.38,11.54-0.65c2.75-2.64,0.76-8.14,0.89-12.41c0.16-5.16,0.22-10.34-0.03-15.49   c-0.14-2.97,0.98-3.48,3.67-3.53c4.08-0.07,9.53,1.97,11.85-0.91c1.97-2.44,0.64-7.66,0.49-11.64c-0.1-2.51,0.49-3.49,3.25-3.44   c4.11,0.08,9.61,1.86,12-0.65c2.59-2.73,0.66-8.22,0.77-12.5c0.13-5.33,0.13-10.66-0.01-15.99c-0.06-2.2,0.64-2.92,2.82-2.81   c3.32,0.16,6.67-0.14,9.99,0.1c2.72,0.19,3.33-0.84,3.28-3.38c-0.14-8.16,0.16-16.33-0.15-24.48c-0.14-3.66,1.09-4.78,4.45-4.19   c0.32,0.06,0.67,0.01,1,0.01c10.64-0.01,10.64-0.01,10.64-10.9c0-6,0.09-12-0.05-17.99c-0.05-2.29,0.48-3.16,2.99-3.18   c4.26-0.03,9.93,1.95,12.38-0.85c2.09-2.39,0.74-7.92,0.62-12.05c-0.07-2.42,0.7-3.1,3.09-3.07c8.66,0.13,17.32,0.14,25.98,0   c2.47-0.04,3,0.81,3.04,3.12c0.08,4.25-1.95,9.93,0.93,12.34c2.47,2.07,7.96,0.7,12.1,0.53c2.61-0.11,2.96,1.01,2.93,3.22   c-0.1,8.5,0.05,16.99-0.1,25.49c-0.04,2.52,0.5,3.48,3.25,3.43c4.11-0.08,9.61-1.86,12,0.65c2.59,2.73,0.66,8.22,0.77,12.5   c0.13,5.33,0.13,10.66-0.02,15.99c-0.06,2.21,0.65,2.91,2.83,2.8c3.32-0.16,6.67,0.14,9.99-0.1c2.73-0.2,3.43,0.86,3.27,3.38   c-0.19,2.99,0.21,6.02-0.11,8.99c-0.35,3.29,1.03,3.8,3.93,3.77c3.93-0.04,9.3-1.84,11.41,0.75c1.98,2.44,0.67,7.6,0.7,11.57   c0.05,5.5,0.11,11-0.03,16.49c-0.06,2.31,0.5,3.5,3,3.1c0.32-0.05,0.67-0.03,1,0c3.92,0.34,9.29-1.79,11.39,0.88   c1.96,2.5,0.62,7.63,0.65,11.61c0.04,5.5,0.13,11-0.04,16.49c-0.07,2.43,0.71,3.38,3.09,3.01c0.16-0.03,0.33-0.01,0.5,0   c3.97,0.09,9.44-1.37,11.54,0.66c2.74,2.65,0.75,8.15,0.88,12.41c0.16,4.99,0.18,10-0.02,14.99c-0.11,2.82,0.32,4.12,3.68,4.04   c4.06-0.1,9.52-2,11.84,0.89c1.97,2.45,0.63,7.67,0.48,11.65c-0.09,2.51,0.52,3.47,3.26,3.42c4.11-0.07,9.61-1.87,11.99,0.66   c2.58,2.74,0.66,8.22,0.76,12.5c0.13,5.33,0.13,10.66-0.02,15.99c-0.06,2.22,0.67,2.9,2.84,2.79c3.32-0.16,6.67,0.14,9.99-0.1   c2.75-0.2,3.31,0.88,3.26,3.39c-0.14,7.99,0.22,16.01-0.16,23.98c-0.2,4.15,1.29,4.82,4.99,4.76c11.12-0.2,11.12-0.06,11.12,10.83   c0,6-0.09,12,0.05,17.99C597.03,456.45,596.45,457.29,593.97,457.3z"/>
	<path class="st0" d="M453.04,268.64c0.01-2.5-0.47-3.62-3.24-3.41c-3.31,0.25-6.66-0.05-9.99,0.1c-2.13,0.1-2.98-0.52-2.86-2.77   c0.18-3.32-0.12-6.67,0.1-9.99c0.17-2.63-0.71-3.38-3.33-3.33c-8.16,0.16-16.33,0.26-24.48-0.03c-3.59-0.13-4.49,0.96-4.33,4.41   c0.18,3.75,1.74,8.92-0.7,10.94c-2.3,1.91-7.29,0.94-11.05,0.65c-3.73-0.3-4.28,1.19-4.23,4.49c0.2,11.82,0.08,23.66,0.08,35.48   c0,12.16,0.03,24.32-0.02,36.48c-0.01,2.14-0.17,3.85,2.96,3.68c4.13-0.23,9.65-1.53,12.08,0.55c2.83,2.42,0.85,8.1,0.9,12.35   c0.03,2.39,0.7,3.11,3.1,3.07c8.49-0.13,16.99-0.18,25.48,0.02c2.9,0.07,3.65-0.87,3.54-3.64c-0.16-3.96-1.39-9.28,0.63-11.55   c2.38-2.69,7.81-0.74,11.91-0.8c2.43-0.04,3.47-0.41,3.46-3.22C452.94,317.62,452.95,293.13,453.04,268.64z"/>
	<path class="st0" d="M449.57,393.17c-3.96,0.22-9.22,1.46-11.61-0.52c-2.82-2.34-0.84-7.79-0.87-11.87   c-0.02-2.79-0.74-3.67-3.6-3.6c-8.32,0.19-16.66,0.19-24.98,0c-2.86-0.07-3.68,0.81-3.56,3.61c0.17,3.96,1.4,9.27-0.61,11.56   c-2.37,2.71-7.82,0.84-11.9,0.79c-2.99-0.03-3.52,1.05-3.47,3.73c0.16,8.16,0.18,16.33-0.01,24.49c-0.07,2.91,0.44,4.29,3.74,3.94   c2.96-0.32,6,0.08,8.98-0.11c2.52-0.16,3.6,0.52,3.39,3.26c-0.24,3.15,0.1,6.34-0.11,9.49c-0.17,2.6,0.65,3.4,3.3,3.35   c8.49-0.17,16.99-0.17,25.48,0c2.66,0.05,3.32-0.79,3.32-3.36c0-4.11-1.89-9.71,0.74-11.91c2.48-2.08,7.9-0.88,12.02-0.71   c2.81,0.11,3.32-0.98,3.21-3.45c-0.18-4.16-0.05-8.33-0.05-12.49c0-4.16-0.15-8.34,0.05-12.49   C453.17,394.18,452.56,393,449.57,393.17z"/>
</g>
</svg>