<svg xmlns="http://www.w3.org/2000/svg" xmlns:xlink="http://www.w3.org/1999/xlink" version="1.1" id="Camada_1" x="0px" y="0px" style="enable-background:new 0 0 841.89 595.28;" xml:space="preserve" viewBox="216.06 115.13 409.44 366.66">
<style type="text/css">
	.st0{fill:#222323;}
</style>
<path class="st0" d="M617.41,115.24c-131.08-0.03-262.17-0.03-393.25-0.03c-1.33,0-2.66-0.01-4,0.04c-1.48,0.06-2.93,0.2-4.1,1.27  c0,103.49,0,206.98,0,310.47c2.19,1.79,4.82,1.27,7.3,1.28c48.48,0.03,96.95,0.01,145.43,0.03c5.66,0,5.89,0.24,5.9,5.79  c0.03,13.82-0.05,27.65,0.04,41.47c0.03,5.13,0.99,6.13,6.07,6.16c14.65,0.1,29.3,0.11,43.95,0c5.01-0.04,5.97-1.1,6.09-6.22  c0.12-4.92-0.01-9.84,0.05-14.75c0.06-4.94,0.37-5.25,5.18-5.31c4.66-0.05,9.32,0.02,13.98-0.02c7.04-0.06,7.96-1,8.01-8.17  c0.03-3.59-0.01-7.18,0.01-10.77c0.04-8.6-0.64-8.18,8.31-8.18c50.61-0.01,101.22,0,151.82-0.03c2.48,0,5.11,0.52,7.3-1.28  c0-103.49,0-206.98,0-310.47C623.06,114.59,620.15,115.24,617.41,115.24z M518.7,300.1c0.01,2.28-0.7,2.96-2.96,2.92  c-6.92-0.13-13.86,0.07-20.78-0.11c-2.52-0.07-3.11,0.7-3.05,3.12c0.17,6.64-0.1,13.3,0.13,19.94c0.1,2.91-0.56,3.77-3.64,3.73  c-15.05-0.19-30.11,0.04-45.16-0.18c-3.68-0.05-5.1,0.58-4.84,4.63c0.4,6.36,0.02,12.76,0.15,19.14c0.04,2.17-0.47,2.98-2.82,2.93  c-7.06-0.15-14.12-0.13-21.18-0.01c-2.09,0.04-2.72-0.54-2.68-2.65c0.13-6.91-0.08-13.83,0.11-20.74c0.07-2.63-0.69-3.29-3.29-3.27  c-15.59,0.12-31.17-0.01-46.76,0.12c-2.68,0.02-3.68-0.48-3.57-3.41c0.24-6.77-0.05-13.56,0.14-20.34c0.07-2.57-0.78-3.07-3.15-3.01  c-6.52,0.16-13.06-0.09-19.58,0.12c-3.01,0.1-4.1-0.57-4.04-3.86c0.22-12.09,0.09-24.2,0.09-36.29c0-12.23,0.09-24.46-0.07-36.69  c-0.03-2.71,0.82-3.36,3.38-3.29c6.39,0.17,12.8-0.23,19.18,0.16c3.77,0.23,4.33-1.14,4.2-4.42c-0.25-6.37,0.08-12.77-0.14-19.14  c-0.09-2.73,0.84-3.23,3.34-3.21c15.72,0.11,31.44,0.11,47.16,0c2.4-0.02,3.19,0.51,3.12,3.04c-0.2,6.91,0.01,13.83-0.11,20.74  c-0.04,2.15,0.43,2.99,2.8,2.94c7.06-0.16,14.12-0.13,21.18-0.01c2.08,0.04,2.73-0.53,2.7-2.65c-0.13-7.04,0.04-14.09-0.1-21.14  c-0.04-2.23,0.54-2.93,2.86-2.92c15.99,0.1,31.97,0.11,47.96-0.01c2.43-0.02,2.77,0.87,2.74,2.97c-0.12,6.91,0.08,13.83-0.11,20.74  c-0.07,2.56,0.77,3.07,3.14,3.02c6.79-0.15,13.59,0.02,20.38-0.1c2.28-0.04,3.29,0.38,3.28,3  C518.62,250.64,518.63,275.37,518.7,300.1z"/>
</svg>