<svg xmlns="http://www.w3.org/2000/svg" xmlns:xlink="http://www.w3.org/1999/xlink" version="1.1" id="Camada_1" x="0px" y="0px" style="enable-background:new 0 0 841.89 595.28;" xml:space="preserve" viewBox="228.53 73.27 384.45 416.19">
<style type="text/css">
	.st0{fill:#222323;}
</style>
<g>
	<path class="st0" d="M436.93,345.2c0.03,0.05,0.05,0.09,0.07,0.12c0.02,0,0.04,0,0.06,0L436.93,345.2z"/>
	<path class="st0" d="M500.91,345.32c0.01,0,0.02,0,0.04,0c0.03-0.04,0.06-0.08,0.09-0.12L500.91,345.32z"/>
	<path class="st0" d="M612.98,332.33c0.03-2.33-0.55-3.21-3.02-3.12c-4.13,0.14-9.65,1.5-12.06-0.58   c-2.81-2.42-0.85-8.09-0.89-12.35c-0.02-2.4-0.71-3.13-3.1-3.06c-5.65,0.16-11.32,0.02-16.97,0.06c-3.8,0.03-8.84-1.3-11.09,0.61   c-2.66,2.27-0.55,7.48-0.9,11.4c-0.03,0.33-0.05,0.67,0,1c0.39,2.46-0.73,3.09-3.07,3.02c-5.49-0.15-10.98-0.08-16.47-0.04   c-3.97,0.03-9.1-1.3-11.58,0.66c-2.65,2.1-0.54,7.46-0.87,11.38c-0.01,0.17-0.03,0.34,0,0.5c0.51,2.94-0.89,3.54-3.6,3.5   c-9.47-0.13-18.95-0.02-28.42,0c-2.26,2.86-1.45,6.27-1.43,9.46c0.02,3.61-1.4,5.04-5.01,5.01c-2.95-0.02-6.1-0.71-8.83,0.99   c1.19-3,0.79-6.15,0.69-9.22c-0.12-3.72,1.47-5.04,5.06-4.92c2.96,0.1,6,0.52,8.87-0.76c0.2-0.19,0.41-0.38,0.61-0.57   c0.02-1.33,0.14-2.67,0.05-3.99c-0.28-3.92,1.76-9.13-0.86-11.41c-2.21-1.92-7.29-0.8-11.07-0.58c-3.22,0.19-4.36-0.72-4.13-4.06   c0.26-3.78,1.38-8.83-0.53-11.09c-2.26-2.68-7.48-0.9-11.39-0.8c-3.3,0.08-4.27-0.9-4.07-4.15c0.23-3.78,1.35-8.85-0.57-11.07   c-2.28-2.63-7.5-0.91-11.4-0.77c-3.4,0.12-4.19-1.05-4.02-4.2c0.2-3.78,1.32-8.87-0.61-11.05c-2.29-2.58-7.51-0.91-11.41-0.74   c-3.51,0.15-4-1.21-3.96-4.25c0.15-13.31,0.2-26.63-0.03-39.93c-0.06-3.47,1.16-3.99,4.22-3.97c19.97,0.12,39.94,0.08,59.91,0.05   c5.13-0.01,12.07,1.81,14.91-0.79c3.26-2.97,0.77-10,0.96-15.25c-0.23-0.21-0.45-0.41-0.68-0.62c-2.35-1.15-4.89-0.85-7.37-0.86   c-11.15-0.05-22.31,0.09-33.46-0.08c-4.46-0.07-4.83-0.86-4.89-6.64c-0.04-3.48,0.23-6.27,4.89-6.22c9.65,0.1,19.31,0.09,28.96,0   c3.97-0.04,7.99,0.53,11.91-0.66c0.19-0.09,0.34-0.21,0.5-0.32c-2.2,5.13-2.14,10.27,0.21,15.4c4.42,0.02,8.84-0.06,13.25,0.1   c2.17,0.08,2.86-0.62,2.78-2.78c-0.16-4.41-0.08-8.83-0.1-13.25c-5.13-2.34-10.26-2.41-15.39-0.21c0.02-0.03,0.06-0.06,0.08-0.09   c1.33-3.18,0.78-6.53,0.79-9.8c0.02-3.11,1.26-4.48,4.43-4.48c3.27-0.01,6.62,0.52,9.8-0.77c0.04-0.03,0.07-0.06,0.11-0.09   c-2.24,4.79-1.42,9.73-0.43,14.67c0.21,0.23,0.41,0.47,0.61,0.7c4.44,0.02,8.88-0.06,13.32,0.11c2.17,0.08,2.86-0.62,2.78-2.79   c-0.16-4.41-0.08-8.83-0.1-13.24c-5.14-2.35-10.28-2.41-15.42-0.2c0.08-0.12,0.18-0.23,0.25-0.37c1.04-2.9,0.72-5.93,0.62-8.89   c-0.14-3.92,1.56-5.52,5.36-5.13c0.49,0.05,0.99,0,1.49,0c5.98,0.02,6.2,0.27,6.34,6.07c0.06,2.63-0.39,5.33,0.8,7.84   c0.19,0.19,0.37,0.39,0.55,0.59c4,0.02,8.01-0.16,11.99,0.13c3.21,0.23,4.18-0.7,4.15-4.04c-0.17-18.66-0.16-37.31-0.01-55.97   c0.03-3.25-0.82-4.12-4.09-4.11c-29.32,0.13-58.64,0.13-87.95,0c-3.3-0.02-4.27,0.89-4.07,4.13c0.23,3.78,1.34,8.87-0.58,11.07   c-2.28,2.62-7.51,0.92-11.42,0.76c-3.48-0.14-4.13,1.16-3.99,4.24c0.17,3.78,1.29,8.91-0.65,11.04c-2.31,2.53-7.52,0.43-11.44,0.86   c-2.99,0.33-4.03-0.53-3.92-3.75c0.26-7.99-0.1-16,0.17-23.98c0.12-3.49-0.77-4.6-4.34-4.4c-3.75,0.22-8.71,1.7-11.02-0.64   c-2.3-2.33-0.85-7.28-0.62-11.04c0.23-3.62-1.01-4.47-4.44-4.31c-3.75,0.17-8.91,1.75-10.93-0.71c-1.91-2.32-0.83-7.28-0.66-11.06   c0.14-3.08-0.5-4.49-3.99-4.21c-3.79,0.3-8.82,1.41-11.13-0.48c-2.75-2.25-0.89-7.48-0.84-11.38c0.04-3.22-0.8-4.14-4.1-4.12   c-29.32,0.14-58.64,0.13-87.95,0c-3.27-0.01-4.13,0.85-4.09,4.11c0.18,14.82,0.06,29.65,0.09,44.48   c0.01,4.97-1.78,11.87,0.75,14.43c3.19,3.24,10.03,0.78,15.3,0.98c0.19-0.2,0.38-0.39,0.56-0.59c1.24-2.68,0.71-5.53,0.81-8.31   c0.18-5.15,0.52-5.51,5.81-5.59c0.99-0.02,1.99,0.06,2.97,0c3.24-0.19,4.35,1.45,4.37,4.51c0.03,3.27-0.54,6.62,0.81,9.79   c0.01,0.02,0.03,0.03,0.04,0.05c-5.13-2.19-10.25-2.13-15.38,0.22c-0.02,4.42,0.06,8.83-0.1,13.24c-0.08,2.16,0.61,2.87,2.78,2.79   c4.43-0.17,8.88-0.09,13.32-0.11c0.21-0.23,0.42-0.46,0.62-0.7c0.98-4.95,1.8-9.89-0.44-14.68c0.14,0.09,0.26,0.19,0.41,0.26   c2.07,0.79,4.24,0.6,6.38,0.62c7.45,0.08,7.43,0.07,7.53,7.31c0.03,2.39-0.28,4.85,0.95,7.07c-5.15-2.23-10.3-2.17-15.45,0.18   c-0.02,4.42,0.06,8.84-0.1,13.25c-0.08,2.17,0.62,2.86,2.78,2.78c4.41-0.16,8.83-0.08,13.25-0.1c2.35-5.14,2.41-10.29,0.19-15.43   c0.27,0.2,0.55,0.36,0.87,0.48c2.26,0.72,4.6,0.54,6.91,0.55c10.95,0.03,21.9-0.05,32.85,0.04c5.21,0.04,5.61,0.6,5.61,6.35   c0,5.81-0.43,6.44-5.5,6.49c-11.12,0.11-22.23,0.01-33.35,0.05c-2.31,0.01-4.66-0.23-6.84,0.86c-0.23,0.21-0.45,0.41-0.68,0.61   c-0.02,3.83,0.21,7.68-0.14,11.48c-0.34,3.68,0.73,4.7,4.55,4.67c23.82-0.2,47.64-0.1,71.45-0.1c2.1,0,4.13-0.6,4.12,3.01   c-0.14,29.98-0.1,59.96-0.03,89.94c0.01,2.4-0.68,3.06-3.07,3.09c-4.25,0.05-10.25-1.97-12.3,0.88c-2.15,2.99-0.6,8.62-0.66,13.1   c-0.01,0.67,0.04,1.33,0.06,2c0.22,0.2,0.43,0.4,0.65,0.6c2.02,1.03,4.21,0.82,6.35,0.84c6.14,0.05,12.29-0.05,18.43,0.06   c1.75,0.03,3.69-0.24,4.64,1.99c2.7,6.3-0.27,10.91-7.13,10.93c-2.66,0.01-5.32-0.11-7.97,0.03c-4.77,0.24-9.63-0.8-14.32,0.84   c-0.22,0.2-0.43,0.4-0.65,0.59c-0.02,4.13,0.19,8.29-0.14,12.4c-0.26,3.26,1.02,3.79,3.92,3.72c8.1-0.19,16.21,0.06,24.31-0.13   c2.9-0.07,4.16,0.46,3.92,3.72c-0.31,4.11-0.04,8.26-0.02,12.4c0.03,0.02,0.05,0.05,0.08,0.07c-0.01,0.04-0.04,0.08-0.13-0.07   c-46.79-0.02-93.58-0.02-140.36-0.11c-2.72-0.01-3.82,0.56-3.66,3.51c0.21,3.96,1.45,9.23-0.54,11.6   c-2.35,2.8-7.79,0.84-11.88,0.85c-2.84,0.01-3.7,0.81-3.57,3.63c0.17,3.96,1.4,9.26-0.6,11.56c-2.37,2.72-7.81,0.84-11.9,0.8   c-2.97-0.03-3.58,1.02-3.49,3.71c0.13,3.95,1.32,9.13-0.67,11.55c-2.11,2.57-7.49,0.8-11.41,0.74c-2.95-0.05-4.09,0.55-3.94,3.79   c0.18,3.93,1.76,9.1-0.63,11.53c-2.4,2.45-7.58,0.81-11.51,0.67c-3.12-0.11-3.9,0.8-3.84,3.88c0.2,10.49,0,20.99,0.12,31.48   c0.05,4.11-1.81,9.53,0.77,11.95c2.17,2.03,7.56,0.93,11.49,0.68c3.27-0.21,3.92,1.01,3.75,3.95c-0.21,3.81-1.42,8.8,0.46,11.16   c2.24,2.81,7.46,0.88,11.37,0.88c3.11,0,4.21,0.62,4.2,4.04c-0.06,12.71,0.09,12.64,12.88,12.12c2.38-0.1,3.06-0.7,3.09-3.09   c0.05-4.25-1.96-10.09,0.89-12.33c2.71-2.12,8.28-0.58,12.59-0.65c0.83-0.01,1.66-0.04,2.5-0.06c0.19-0.2,0.39-0.41,0.57-0.61   c1.33-3.03,0.78-6.24,0.77-9.37c0-3.14,1.21-4.53,4.42-4.54c3.3-0.01,6.67,0.54,9.87-0.79c0.02-0.01,0.03-0.03,0.05-0.04   c-2.24,4.79-1.41,9.72-0.42,14.65c0.21,0.23,0.41,0.47,0.61,0.7c4.44,0.02,8.88-0.06,13.32,0.11c2.17,0.08,2.86-0.62,2.78-2.79   c-0.16-4.41-0.08-8.83-0.1-13.24c-5.14-2.35-10.28-2.41-15.42-0.2c0.1-0.14,0.21-0.27,0.28-0.44c1.04-3.09,0.63-6.28,0.61-9.42   c-0.02-3.15,1.24-4.52,4.44-4.53c3.3-0.01,6.68,0.55,9.87-0.81c0.01-0.01,0.01-0.01,0.02-0.02c-2.23,4.78-1.41,9.71-0.42,14.65   c0.21,0.23,0.41,0.47,0.61,0.7c4.44,0.02,8.88-0.06,13.32,0.11c2.17,0.08,2.86-0.62,2.78-2.79c-0.16-4.41-0.08-8.83-0.1-13.24   c-5.14-2.35-10.28-2.41-15.42-0.2c0.11-0.15,0.22-0.3,0.3-0.48c1.02-3.08,0.62-6.27,0.6-9.41c-0.02-3.17,1.31-4.45,4.47-4.51   c3.32-0.06,6.76,0.67,9.91-0.95c-2.3,4.82-1.47,9.79-0.48,14.77c0.21,0.23,0.41,0.47,0.61,0.7c37.38,0.02,74.75,0.05,112.13,0.05   c5.12,0,12.06,1.79,14.88-0.8c3.23-2.98,0.77-9.98,0.95-15.23c-0.25-0.22-0.5-0.44-0.75-0.66c-1.85-0.95-3.87-0.89-5.86-0.89   c-38.24-0.03-76.49-0.03-114.73,0c-2.01,0-4.06-0.03-5.81,1.07c0.13-0.23,0.25-0.46,0.33-0.71c0.63-2.11,0.47-4.28,0.52-6.44   c0.14-6.31,0.45-6.62,6.94-6.71c1.5-0.02,3-0.01,4.49-0.01c35.28,0,70.57,0.01,105.85-0.01c2.81,0,5.67,0.3,8.4-0.72   c0.18-0.09,0.33-0.21,0.48-0.32c-2.21,5.14-2.14,10.27,0.2,15.41c9.56,0.02,19.11-0.04,28.66,0.11c2.5,0.04,3.53-0.5,3.37-3.23   c-0.25-4.27-0.1-8.57-0.12-12.85c-0.48-0.4-0.98-0.88-1.56-0.94c-9.58-1.02-19.17-1.02-28.76,0c-0.3,0.03-0.59,0.18-0.86,0.37   c1.16-2.98,0.73-6.11,0.72-9.16c-0.01-3.41,1.52-4.81,4.84-4.72c2.82,0.07,5.66,0.12,8.48-0.02c5.61-0.28,11.3,0.84,16.84-0.83   c0.04-0.02,0.07-0.06,0.11-0.09c-2.25,4.79-1.42,9.73-0.43,14.67c0.21,0.23,0.41,0.47,0.61,0.7c9.58,0.02,19.16-0.04,28.73,0.12   c2.51,0.04,3.53-0.51,3.37-3.23c-0.25-4.27-0.1-8.57-0.12-12.85c-0.48-0.4-0.98-0.88-1.56-0.94c-9.58-1.02-19.17-1.02-28.76,0   c-0.29,0.03-0.56,0.17-0.81,0.35c0.01-0.01,0.02-0.02,0.03-0.04c0.98-2.72,0.76-5.57,0.63-8.35c-0.2-4.08,1.55-5.73,5.56-5.5   c2.63,0.15,5.29,0.13,7.92,0c5.58-0.28,11.22,0.84,16.72-0.84c0.03-0.02,0.06-0.05,0.09-0.08c-2.24,4.79-1.42,9.73-0.43,14.67   c0.21,0.23,0.41,0.47,0.61,0.7c0,0.01,0,0.02,0,0.02c0.04,0.03,0.08,0.07,0.12,0.1l-0.12-0.12c9.58,0.02,19.16-0.04,28.73,0.12   c2.51,0.04,3.53-0.51,3.37-3.23c-0.25-4.27-0.1-8.57-0.12-12.85c-0.48-0.4-0.98-0.88-1.56-0.94c-9.58-1.02-19.17-1.02-28.76,0   c-0.29,0.03-0.56,0.17-0.82,0.35c0.01-0.02,0.02-0.03,0.03-0.05c1.06-3.05,0.62-6.21,0.66-9.32c0.04-3.11,1.41-4.53,4.5-4.47   c1.81,0.03,3.63,0.06,5.44-0.03c6.72-0.35,13.5,0.86,20.16-0.8c0.06-0.04,0.1-0.09,0.16-0.13c-2.25,4.79-1.42,9.73-0.43,14.68   c0.21,0.23,0.41,0.47,0.61,0.7c9.58,0.02,19.16-0.04,28.73,0.12c2.51,0.04,3.53-0.51,3.37-3.23c-0.25-4.27-0.1-8.57-0.12-12.85   c-0.48-0.4-0.98-0.88-1.56-0.94c-9.58-1.02-19.17-1.02-28.76,0c-0.29,0.03-0.56,0.17-0.82,0.35c1.08-3.06,0.63-6.24,0.67-9.36   c0.03-3.12,1.35-4.54,4.51-4.52c6.66,0.04,13.32,0.04,19.98,0c3.11-0.02,4.53,1.29,4.57,4.46c0.05,3.13-0.53,6.34,0.83,9.37   c0.19,0.21,0.39,0.42,0.58,0.63h0c0,0.01,0,0.02,0,0.02c0.04,0.03,0.08,0.07,0.12,0.1c0,0-0.12-0.12-0.12-0.12   c4.33,0.02,8.66-0.07,12.98,0.11c2.33,0.1,3.17-0.53,3.13-3.01C612.84,349.64,612.85,340.98,612.98,332.33z M483.41,368.28   c-0.16,7.32-0.18,7.37-7.66,7.39c-10.61,0.03-21.22-0.02-31.83,0.02c-2.46,0.01-5.03-0.23-7.05,1.69c-1.8,2.12-1.38,4.71-1.44,7.16   c-0.18,6.85-0.31,7.08-7.03,7.09c-26.3,0.03-52.6,0.03-78.9,0.01c-6.62,0-7.1-0.55-6.84-7.14c0.19-5.03,0.78-5.63,6.53-5.64   c26.63-0.05,53.27,0,79.9-0.04c2.79,0,5.72,0.44,8.07-1.72c2.41-10.49,2.29-20.99,0.07-31.49c-0.02-0.08-0.03-0.14-0.04-0.18   c0.19,0.17,0.38,0.34,0.57,0.51c1.05,0.57,2.2,0.69,3.37,0.79c9.49,0.76,9.54,0.76,10.41,10.27c0.29,3.2,1.39,5.59,4.96,5.61   c9.27,0.06,18.56,0.87,27.81-0.5c0.05-0.02,0.09-0.06,0.13-0.09C483.26,363.91,483.46,366.13,483.41,368.28z"/>
	<path class="st0" d="M565.01,377.31l-0.12-0.12c0,0.01,0,0.02,0,0.02C564.93,377.24,564.97,377.27,565.01,377.31z"/>
	<path class="st0" d="M501.03,409.29l-0.12-0.12c0,0.01,0,0.02,0,0.02C500.95,409.23,500.99,409.26,501.03,409.29z"/>
	<path class="st0" d="M469.04,425.29c-0.02-0.04-0.03-0.08-0.05-0.12c-0.02,0-0.05,0-0.07,0L469.04,425.29z"/>
	<path class="st0" d="M308.98,137.39c0.04-0.02,0.08-0.03,0.12-0.05c0-0.02,0-0.05,0-0.07L308.98,137.39z"/>
	<path class="st0" d="M340.97,169.38l0.12-0.12c-0.02,0-0.05,0-0.07,0C341,169.3,340.99,169.34,340.97,169.38z"/>
	<path class="st0" d="M324.98,153.39c0.04-0.02,0.08-0.03,0.12-0.05c0-0.02,0-0.05,0-0.07L324.98,153.39z"/>
	<path class="st0" d="M549.01,185.38l-0.12-0.12c0,0.02,0,0.05,0,0.07C548.93,185.34,548.97,185.36,549.01,185.38z"/>
	<path class="st0" d="M376.01,313.22c-2.45-0.11-2.97,0.76-3.06,3.1c-0.54,13.51-0.38,13.65,13.15,13.02   c2.53-0.12,3.04-0.96,2.95-3.21c-0.18-4.28-0.13-8.58-0.17-12.87C384.59,313.27,380.29,313.4,376.01,313.22z"/>
	<path class="st0" d="M405,297.33c-4.24-0.02-8.49,0.09-12.72-0.11c-2.52-0.12-3.46,0.59-3.32,3.24c0.21,4.22,0.06,8.45,0.05,12.68   c5.33,0.02,10.66,0.04,15.99,0.06C407.41,307.92,407.41,302.63,405,297.33z"/>
	<path class="st0" d="M404.95,297.22c0.02,0.04,0.03,0.08,0.05,0.12c0.02,0,0.05,0,0.07,0L404.95,297.22z"/>
	<path class="st0" d="M388.97,313.24l-0.09-0.09c0,0.04,0,0.08,0,0.12c0.04,0,0.08,0,0.12,0l0,0c0-0.04,0-0.08,0-0.12   c-0.04,0-0.08,0-0.12,0C388.88,313.15,388.94,313.2,388.97,313.24z"/>
	<path class="st0" d="M404.95,313.33l0.12-0.12c-0.02,0-0.05,0-0.07,0C404.98,313.25,404.97,313.29,404.95,313.33z"/>
	<path class="st0" d="M341.09,441.28l-0.12-0.12c0,0.02,0,0.05,0,0.07C341.01,441.25,341.05,441.26,341.09,441.28z"/>
	<path class="st0" d="M325.1,457.28l-0.12-0.12c0,0.02,0,0.05,0,0.07C325.02,457.24,325.06,457.26,325.1,457.28z"/>
	<path class="st0" d="M533.02,201.37l-0.12-0.12c0,0.02,0,0.05,0,0.07C532.94,201.34,532.98,201.35,533.02,201.37z"/>
	<path class="st0" d="M517.02,217.37c-0.02-0.04-0.03-0.08-0.05-0.12c-0.02,0-0.05,0-0.07,0L517.02,217.37z"/>
	<path class="st0" d="M309.1,473.27l-0.12-0.12c0,0.02,0,0.05,0,0.07C309.02,473.24,309.06,473.25,309.1,473.27z"/>
	<path class="st0" d="M293.11,473.22c-0.02,1.3-0.05,2.59-0.06,3.89c-0.02,12.53-0.02,12.46,12.7,12.16   c2.48-0.06,3.5-0.55,3.35-3.26c-0.24-4.25-0.1-8.53-0.12-12.79C303.69,470.8,298.4,470.8,293.11,473.22z"/>
	<path class="st0" d="M292.99,473.27c0.04-0.02,0.08-0.03,0.12-0.05c0-0.02,0-0.05,0-0.07   C293.11,473.15,292.99,473.27,292.99,473.27z"/>
</g>
</svg>