<?xml version="1.0" encoding="utf-8"?>
<!-- Generator: Adobe Illustrator 25.0.0, SVG Export Plug-In . SVG Version: 6.00 Build 0)  -->
<svg version="1.1" id="Camada_1" xmlns="http://www.w3.org/2000/svg" xmlns:xlink="http://www.w3.org/1999/xlink" x="0px" y="0px"
	 viewBox="0 0 1170 530" style="enable-background:new 0 0 1170 530;" xml:space="preserve">
<style type="text/css">
	.st0{fill:#FD791C;}
	.st1{fill:#0A57F1;}
	.st2{fill:#E759FF;}
	.st3{fill:#4EE572;}
	.st4{fill:#222323;}
	.st5{fill:#F0F6F0;}
</style>
<g>
	<g>
		<polygon class="st0" points="-2314.65,-286.15 -2286.8,-286.15 -2286.8,-390.14 -2256.35,-390.14 -2256.35,-416.14 
			-2345.11,-416.14 -2345.11,-390.14 -2314.65,-390.14 		"/>
		<rect x="-2211.85" y="-364.33" class="st0" width="36.21" height="25.07"/>
		<polygon class="st0" points="-2183.62,-390.33 -2183.62,-416.14 -2239.71,-416.14 -2239.71,-364.33 -2211.85,-364.33 
			-2211.85,-390.33 		"/>
		<polygon class="st0" points="-2211.85,-339.27 -2239.71,-339.27 -2239.71,-286.15 -2160.42,-286.15 -2160.42,-311.97 
			-2211.85,-311.97 		"/>
		<rect x="-2144.21" y="-334.99" class="st0" width="27.85" height="48.84"/>
		<path class="st0" d="M-2083.68-309.55v23.4h27.86v-24.14c0-14.12-3.72-25.26-10.22-33.43c10.22-7.61,15.23-19.13,15.23-32.31
			c0-23.03-15.05-40.11-46.24-40.11h-47.16v56.08h27.85v-30.27h18.94c13.55,0,19.68,6.31,19.68,14.67c0,8.54-5.57,15.59-19.12,15.59
			h-19.5v25.07h12.44C-2090.54-334.99-2083.68-328.86-2083.68-309.55z"/>
		<rect x="-1923.04" y="-416.14" class="st0" width="27.86" height="129.99"/>
		<polygon class="st0" points="-1847.69,-286.15 -1819.84,-286.15 -1819.84,-390.14 -1789.39,-390.14 -1789.39,-416.14 
			-1878.15,-416.14 -1878.15,-390.14 -1847.69,-390.14 		"/>
		<path class="st0" d="M-1535.55-376.03c0-23.03-15.04-40.11-46.24-40.11h-47.16v56.08h27.85v-30.27h18.94
			c13.55,0,19.68,6.31,19.68,14.67c0,8.54-5.57,15.59-19.13,15.59h-19.49v25.07h12.44c13.37,0,20.24,6.13,20.24,25.44v23.4h27.85
			v-24.14c0-14.12-3.72-25.26-10.22-33.43C-1540.56-351.33-1535.55-362.85-1535.55-376.03z"/>
		<rect x="-1628.95" y="-334.99" class="st0" width="27.85" height="48.84"/>
		<rect x="-1519.04" y="-416.14" class="st0" width="27.85" height="129.99"/>
		<path class="st0" d="M-1407.1-418.93c-40.11,0-70.01,29.53-70.01,67.78c0,38.26,30.08,67.78,70.01,67.78
			c40.11,0,70-29.53,70-67.78C-1337.09-389.4-1366.99-418.93-1407.1-418.93z M-1407.1-309.36c-23.96,0-42.16-17.64-42.16-41.79
			c0-24.32,18.2-41.78,42.16-41.78c23.95,0,42.15,17.64,42.15,41.78C-1364.95-327.01-1383.14-309.36-1407.1-309.36z"/>
		<path class="st0" d="M-1299.38-383.09c0-5.94,4.45-9.47,10.58-9.47c7.25,0,12.26,4.27,14.12,13.55l26-7.61
			c-4.08-19.13-17.64-32.68-41.04-32.68c-21.17,0-37.88,13.18-37.88,35.28c0,36.21,52.93,44.01,52.93,62.21
			c0,7.8-6.13,12.07-13.19,12.07c-9.28,0-15.23-5.94-17.27-15.97l-26.56,8.35c4.64,19.13,19.5,33.99,44.38,33.99
			c22.66,0,40.85-14.49,40.85-38.62C-1246.46-358.76-1299.38-365.82-1299.38-383.09z"/>
		<path class="st0" d="M-2274.47-254.63h-42.52v129.99h42.52c43.26,0,68.52-26.92,68.52-65
			C-2205.95-227.33-2231.2-254.63-2274.47-254.63z M-2277.07-150.64h-12.07v-77.99h12.07c30.08,0,43.27,16.71,43.27,38.99
			C-2233.8-167.35-2246.99-150.64-2277.07-150.64z"/>
		<rect x="-2191.88" y="-254.63" class="st0" width="27.85" height="129.99"/>
		<path class="st0" d="M-2044.56-201.71h-39.65v25.07h39.55c-3.71,18.75-18.38,28.78-35.84,28.78c-23.4,0-41.6-17.64-41.6-41.79
			c0-24.32,18.2-41.78,41.6-41.78c12.81,0,23.4,5.2,30.27,13.74l18.94-18.94c-11.33-13.18-28.78-20.8-48.65-20.8
			c-40.11,0-70.01,29.53-70.01,67.78c0,38.26,30.08,67.78,70.01,67.78c34.54,0,59.61-23.03,64.99-54.78h-29.61V-201.71z"/>
		<rect x="-2001.71" y="-254.63" class="st0" width="27.85" height="129.99"/>
		<polygon class="st0" points="-1957.12,-228.63 -1926.66,-228.63 -1926.66,-124.64 -1898.81,-124.64 -1898.81,-228.63 
			-1868.36,-228.63 -1868.36,-254.63 -1957.12,-254.63 		"/>
		<rect x="-1755.22" y="-254.63" class="st0" width="27.85" height="129.99"/>
		<path class="st0" d="M-1684.16-221.58c0-5.94,4.45-9.47,10.58-9.47c7.25,0,12.26,4.27,14.12,13.55l26-7.61
			c-4.08-19.13-17.64-32.68-41.04-32.68c-21.17,0-37.88,13.18-37.88,35.28c0,36.21,52.93,44.01,52.93,62.21
			c0,7.8-6.13,12.07-13.19,12.07c-9.28,0-15.23-5.94-17.27-15.97l-26.56,8.35c4.64,19.13,19.5,33.99,44.38,33.99
			c22.66,0,40.85-14.49,40.85-38.62C-1631.24-197.25-1684.16-204.3-1684.16-221.58z"/>
		<path class="st0" d="M-1831.9-200.64v-1.47v-7.98v-1.82c0-14.49,6.31-19.5,14.11-19.5c7.8,0,14.11,5.01,14.11,19.5v1.82v7.98v1.47
			h27.85v-1.47v-7.98v-1.82c0-30.27-20.05-45.5-41.97-45.5c-22.66,0-41.97,15.23-41.97,45.5v1.82v7.98v24.84v2.07v50.04h27.86
			v-50.04h28.22v-25.44H-1831.9z"/>
		<rect x="-1803.68" y="-175.2" class="st0" width="27.86" height="50.04"/>
		<path class="st0" d="M-1642.94-351.15c0-38.25-29.9-67.78-70-67.78c-40.11,0-70.01,29.53-70.01,67.78
			c0,38.26,30.09,67.78,70.01,67.78C-1672.83-283.37-1642.94-312.9-1642.94-351.15z M-1755.1-351.15c0-24.32,18.2-41.78,42.15-41.78
			c23.95,0,42.15,17.64,42.15,41.78c0,24.14-18.2,41.79-42.15,41.79C-1736.9-309.36-1755.1-327.01-1755.1-351.15z"/>
		<polygon class="st0" points="-1685.76,-454.55 -1660.89,-454.55 -1660.89,-480.8 -1687.14,-480.8 -1687.14,-455.68 
			-1712.01,-455.68 -1712.01,-429.43 -1685.76,-429.43 		"/>
		<rect x="-2034.06" y="-334.99" class="st0" width="27.85" height="48.84"/>
		<path class="st0" d="M-1945.67-286.15v-24.14c0-14.12-3.71-25.26-10.22-33.43c10.22-7.61,15.23-19.13,15.23-32.31
			c0-23.03-15.05-40.11-46.24-40.11h-47.16v56.08h27.85v-30.27h18.94c13.55,0,19.68,6.31,19.68,14.67c0,8.54-5.57,15.59-19.12,15.59
			h-19.5v25.07h12.44c13.37,0,20.24,6.13,20.24,25.44v23.4H-1945.67z"/>
		<rect x="-1613.96" y="-150.74" class="st0" width="25.69" height="25.69"/>
	</g>
</g>
<g>
	<g>
		<polygon class="st1" points="-1124.26,-286.15 -1096.41,-286.15 -1096.41,-390.14 -1065.96,-390.14 -1065.96,-416.14 
			-1154.72,-416.14 -1154.72,-390.14 -1124.26,-390.14 		"/>
		<rect x="-1021.46" y="-364.33" class="st1" width="36.21" height="25.07"/>
		<polygon class="st1" points="-993.23,-390.33 -993.23,-416.14 -1049.31,-416.14 -1049.31,-364.33 -1021.46,-364.33 
			-1021.46,-390.33 		"/>
		<polygon class="st1" points="-1021.46,-339.27 -1049.31,-339.27 -1049.31,-286.15 -970.02,-286.15 -970.02,-311.97 
			-1021.46,-311.97 		"/>
		<rect x="-953.82" y="-334.99" class="st1" width="27.85" height="48.84"/>
		<path class="st1" d="M-893.28-309.55v23.4h27.86v-24.14c0-14.12-3.72-25.26-10.22-33.43c10.22-7.61,15.23-19.13,15.23-32.31
			c0-23.03-15.05-40.11-46.24-40.11h-47.16v56.08h27.85v-30.27h18.94c13.55,0,19.68,6.31,19.68,14.67c0,8.54-5.57,15.59-19.12,15.59
			h-19.5v25.07h12.44C-900.15-334.99-893.28-328.86-893.28-309.55z"/>
		<rect x="-732.65" y="-416.14" class="st1" width="27.86" height="129.99"/>
		<polygon class="st1" points="-657.3,-286.15 -629.44,-286.15 -629.44,-390.14 -598.99,-390.14 -598.99,-416.14 -687.76,-416.14 
			-687.76,-390.14 -657.3,-390.14 		"/>
		<path class="st1" d="M-345.16-376.03c0-23.03-15.04-40.11-46.24-40.11h-47.16v56.08h27.85v-30.27h18.94
			c13.55,0,19.68,6.31,19.68,14.67c0,8.54-5.57,15.59-19.13,15.59h-19.49v25.07h12.44c13.37,0,20.24,6.13,20.24,25.44v23.4h27.85
			v-24.14c0-14.12-3.72-25.26-10.22-33.43C-350.17-351.33-345.16-362.85-345.16-376.03z"/>
		<rect x="-438.56" y="-334.99" class="st1" width="27.85" height="48.84"/>
		<rect x="-328.65" y="-416.14" class="st1" width="27.85" height="129.99"/>
		<path class="st1" d="M-216.7-418.93c-40.11,0-70.01,29.53-70.01,67.78c0,38.26,30.08,67.78,70.01,67.78c40.11,0,70-29.53,70-67.78
			C-146.7-389.4-176.6-418.93-216.7-418.93z M-216.7-309.36c-23.96,0-42.16-17.64-42.16-41.79c0-24.32,18.2-41.78,42.16-41.78
			c23.95,0,42.15,17.64,42.15,41.78C-174.55-327.01-192.75-309.36-216.7-309.36z"/>
		<path class="st1" d="M-108.98-383.09c0-5.94,4.45-9.47,10.58-9.47c7.25,0,12.26,4.27,14.12,13.55l26-7.61
			c-4.08-19.13-17.64-32.68-41.04-32.68c-21.17,0-37.88,13.18-37.88,35.28c0,36.21,52.93,44.01,52.93,62.21
			c0,7.8-6.13,12.07-13.19,12.07c-9.28,0-15.23-5.94-17.27-15.97l-26.56,8.35c4.64,19.13,19.5,33.99,44.38,33.99
			c22.66,0,40.85-14.49,40.85-38.62C-56.06-358.76-108.98-365.82-108.98-383.09z"/>
		<path class="st1" d="M-1084.07-254.63h-42.52v129.99h42.52c43.26,0,68.52-26.92,68.52-65
			C-1015.55-227.33-1040.81-254.63-1084.07-254.63z M-1086.68-150.64h-12.07v-77.99h12.07c30.08,0,43.27,16.71,43.27,38.99
			C-1043.41-167.35-1056.59-150.64-1086.68-150.64z"/>
		<rect x="-1001.48" y="-254.63" class="st1" width="27.85" height="129.99"/>
		<path class="st1" d="M-854.17-201.71h-39.65v25.07h39.55c-3.71,18.75-18.38,28.78-35.84,28.78c-23.4,0-41.6-17.64-41.6-41.79
			c0-24.32,18.2-41.78,41.6-41.78c12.81,0,23.4,5.2,30.27,13.74l18.94-18.94c-11.33-13.18-28.78-20.8-48.65-20.8
			c-40.11,0-70.01,29.53-70.01,67.78c0,38.26,30.08,67.78,70.01,67.78c34.54,0,59.61-23.03,64.99-54.78h-29.61V-201.71z"/>
		<rect x="-811.31" y="-254.63" class="st1" width="27.85" height="129.99"/>
		<polygon class="st1" points="-766.73,-228.63 -736.27,-228.63 -736.27,-124.64 -708.42,-124.64 -708.42,-228.63 -677.96,-228.63 
			-677.96,-254.63 -766.73,-254.63 		"/>
		<rect x="-564.83" y="-254.63" class="st1" width="27.85" height="129.99"/>
		<path class="st1" d="M-493.77-221.58c0-5.94,4.45-9.47,10.58-9.47c7.25,0,12.26,4.27,14.12,13.55l26-7.61
			c-4.08-19.13-17.64-32.68-41.04-32.68c-21.17,0-37.88,13.18-37.88,35.28c0,36.21,52.93,44.01,52.93,62.21
			c0,7.8-6.13,12.07-13.19,12.07c-9.28,0-15.23-5.94-17.27-15.97l-26.56,8.35c4.64,19.13,19.5,33.99,44.38,33.99
			c22.66,0,40.85-14.49,40.85-38.62C-440.85-197.25-493.77-204.3-493.77-221.58z"/>
		<path class="st1" d="M-641.51-200.64v-1.47v-7.98v-1.82c0-14.49,6.31-19.5,14.11-19.5c7.8,0,14.11,5.01,14.11,19.5v1.82v7.98v1.47
			h27.85v-1.47v-7.98v-1.82c0-30.27-20.05-45.5-41.97-45.5c-22.66,0-41.97,15.23-41.97,45.5v1.82v7.98v24.84v2.07v50.04h27.86
			v-50.04h28.22v-25.44H-641.51z"/>
		<rect x="-613.29" y="-175.2" class="st1" width="27.86" height="50.04"/>
		<path class="st1" d="M-452.55-351.15c0-38.25-29.9-67.78-70-67.78c-40.11,0-70.01,29.53-70.01,67.78
			c0,38.26,30.09,67.78,70.01,67.78C-482.44-283.37-452.55-312.9-452.55-351.15z M-564.71-351.15c0-24.32,18.2-41.78,42.15-41.78
			c23.95,0,42.15,17.64,42.15,41.78c0,24.14-18.2,41.79-42.15,41.79C-546.51-309.36-564.71-327.01-564.71-351.15z"/>
		<polygon class="st1" points="-495.37,-454.55 -470.5,-454.55 -470.5,-480.8 -496.75,-480.8 -496.75,-455.68 -521.62,-455.68 
			-521.62,-429.43 -495.37,-429.43 		"/>
		<rect x="-843.67" y="-334.99" class="st1" width="27.85" height="48.84"/>
		<path class="st1" d="M-755.28-286.15v-24.14c0-14.12-3.71-25.26-10.22-33.43c10.22-7.61,15.23-19.13,15.23-32.31
			c0-23.03-15.05-40.11-46.24-40.11h-47.16v56.08h27.85v-30.27h18.94c13.55,0,19.68,6.31,19.68,14.67c0,8.54-5.57,15.59-19.12,15.59
			h-19.5v25.07h12.44c13.37,0,20.24,6.13,20.24,25.44v23.4H-755.28z"/>
		<rect x="-423.57" y="-150.74" class="st1" width="25.69" height="25.69"/>
	</g>
</g>
<g>
	<g>
		<polygon class="st2" points="-2314.65,280.17 -2286.8,280.17 -2286.8,176.18 -2256.35,176.18 -2256.35,150.19 -2345.11,150.19 
			-2345.11,176.18 -2314.65,176.18 		"/>
		<rect x="-2211.85" y="202" class="st2" width="36.21" height="25.07"/>
		<polygon class="st2" points="-2183.62,176 -2183.62,150.19 -2239.71,150.19 -2239.71,202 -2211.85,202 -2211.85,176 		"/>
		<polygon class="st2" points="-2211.85,227.06 -2239.71,227.06 -2239.71,280.17 -2160.42,280.17 -2160.42,254.36 -2211.85,254.36 
					"/>
		<rect x="-2144.21" y="231.34" class="st2" width="27.85" height="48.84"/>
		<path class="st2" d="M-2083.68,256.77v23.4h27.86v-24.14c0-14.12-3.72-25.26-10.22-33.43c10.22-7.61,15.23-19.13,15.23-32.31
			c0-23.03-15.05-40.11-46.24-40.11h-47.16v56.08h27.85V176h18.94c13.55,0,19.68,6.31,19.68,14.67c0,8.54-5.57,15.59-19.12,15.59
			h-19.5v25.07h12.44C-2090.54,231.34-2083.68,237.46-2083.68,256.77z"/>
		<rect x="-1923.04" y="150.19" class="st2" width="27.86" height="129.99"/>
		<polygon class="st2" points="-1847.69,280.17 -1819.84,280.17 -1819.84,176.18 -1789.39,176.18 -1789.39,150.19 -1878.15,150.19 
			-1878.15,176.18 -1847.69,176.18 		"/>
		<path class="st2" d="M-1535.55,190.3c0-23.03-15.04-40.11-46.24-40.11h-47.16v56.08h27.85V176h18.94
			c13.55,0,19.68,6.31,19.68,14.67c0,8.54-5.57,15.59-19.13,15.59h-19.49v25.07h12.44c13.37,0,20.24,6.13,20.24,25.44v23.4h27.85
			v-24.14c0-14.12-3.72-25.26-10.22-33.43C-1540.56,214.99-1535.55,203.48-1535.55,190.3z"/>
		<rect x="-1628.95" y="231.34" class="st2" width="27.85" height="48.84"/>
		<rect x="-1519.04" y="150.19" class="st2" width="27.85" height="129.99"/>
		<path class="st2" d="M-1407.1,147.4c-40.11,0-70.01,29.53-70.01,67.78c0,38.26,30.08,67.78,70.01,67.78c40.11,0,70-29.53,70-67.78
			C-1337.09,176.93-1366.99,147.4-1407.1,147.4z M-1407.1,256.96c-23.96,0-42.16-17.64-42.16-41.79c0-24.32,18.2-41.78,42.16-41.78
			c23.95,0,42.15,17.64,42.15,41.78C-1364.95,239.32-1383.14,256.96-1407.1,256.96z"/>
		<path class="st2" d="M-1299.38,183.24c0-5.94,4.45-9.47,10.58-9.47c7.25,0,12.26,4.27,14.12,13.55l26-7.61
			c-4.08-19.13-17.64-32.68-41.04-32.68c-21.17,0-37.88,13.18-37.88,35.28c0,36.21,52.93,44.01,52.93,62.21
			c0,7.8-6.13,12.07-13.19,12.07c-9.28,0-15.23-5.94-17.27-15.97l-26.56,8.35c4.64,19.13,19.5,33.99,44.38,33.99
			c22.66,0,40.85-14.49,40.85-38.62C-1246.46,207.57-1299.38,200.51-1299.38,183.24z"/>
		<path class="st2" d="M-2274.47,311.7h-42.52v129.99h42.52c43.26,0,68.52-26.92,68.52-65C-2205.95,339-2231.2,311.7-2274.47,311.7z
			 M-2277.07,415.69h-12.07V337.7h12.07c30.08,0,43.27,16.71,43.27,38.99C-2233.8,398.98-2246.99,415.69-2277.07,415.69z"/>
		<rect x="-2191.88" y="311.7" class="st2" width="27.85" height="129.99"/>
		<path class="st2" d="M-2044.56,364.62h-39.65v25.07h39.55c-3.71,18.75-18.38,28.78-35.84,28.78c-23.4,0-41.6-17.64-41.6-41.79
			c0-24.32,18.2-41.78,41.6-41.78c12.81,0,23.4,5.2,30.27,13.74l18.94-18.94c-11.33-13.18-28.78-20.8-48.65-20.8
			c-40.11,0-70.01,29.53-70.01,67.78c0,38.26,30.08,67.78,70.01,67.78c34.54,0,59.61-23.03,64.99-54.78h-29.61V364.62z"/>
		<rect x="-2001.71" y="311.7" class="st2" width="27.85" height="129.99"/>
		<polygon class="st2" points="-1957.12,337.7 -1926.66,337.7 -1926.66,441.69 -1898.81,441.69 -1898.81,337.7 -1868.36,337.7 
			-1868.36,311.7 -1957.12,311.7 		"/>
		<rect x="-1755.22" y="311.7" class="st2" width="27.85" height="129.99"/>
		<path class="st2" d="M-1684.16,344.75c0-5.94,4.45-9.47,10.58-9.47c7.25,0,12.26,4.27,14.12,13.55l26-7.61
			c-4.08-19.13-17.64-32.68-41.04-32.68c-21.17,0-37.88,13.18-37.88,35.28c0,36.21,52.93,44.01,52.93,62.21
			c0,7.8-6.13,12.07-13.19,12.07c-9.28,0-15.23-5.94-17.27-15.97l-26.56,8.35c4.64,19.13,19.5,33.99,44.38,33.99
			c22.66,0,40.85-14.49,40.85-38.62C-1631.24,369.08-1684.16,362.03-1684.16,344.75z"/>
		<path class="st2" d="M-1831.9,365.69v-1.47v-7.98v-1.82c0-14.49,6.31-19.5,14.11-19.5c7.8,0,14.11,5.01,14.11,19.5v1.82v7.98v1.47
			h27.85v-1.47v-7.98v-1.82c0-30.27-20.05-45.5-41.97-45.5c-22.66,0-41.97,15.23-41.97,45.5v1.82v7.98v24.84v2.07v50.04h27.86
			v-50.04h28.22v-25.44H-1831.9z"/>
		<rect x="-1803.68" y="391.13" class="st2" width="27.86" height="50.04"/>
		<path class="st2" d="M-1642.94,215.18c0-38.25-29.9-67.78-70-67.78c-40.11,0-70.01,29.53-70.01,67.78
			c0,38.26,30.09,67.78,70.01,67.78C-1672.83,282.96-1642.94,253.43-1642.94,215.18z M-1755.1,215.18
			c0-24.32,18.2-41.78,42.15-41.78c23.95,0,42.15,17.64,42.15,41.78c0,24.14-18.2,41.79-42.15,41.79
			C-1736.9,256.96-1755.1,239.32-1755.1,215.18z"/>
		<polygon class="st2" points="-1685.76,111.78 -1660.89,111.78 -1660.89,85.53 -1687.14,85.53 -1687.14,110.65 -1712.01,110.65 
			-1712.01,136.9 -1685.76,136.9 		"/>
		<rect x="-2034.06" y="231.34" class="st2" width="27.85" height="48.84"/>
		<path class="st2" d="M-1945.67,280.17v-24.14c0-14.12-3.71-25.26-10.22-33.43c10.22-7.61,15.23-19.13,15.23-32.31
			c0-23.03-15.05-40.11-46.24-40.11h-47.16v56.08h27.85V176h18.94c13.55,0,19.68,6.31,19.68,14.67c0,8.54-5.57,15.59-19.12,15.59
			h-19.5v25.07h12.44c13.37,0,20.24,6.13,20.24,25.44v23.4H-1945.67z"/>
		<rect x="-1613.96" y="415.58" class="st2" width="25.69" height="25.69"/>
	</g>
</g>
<g>
	<polygon class="st3" points="-1124.26,280.17 -1096.41,280.17 -1096.41,176.18 -1065.96,176.18 -1065.96,150.19 -1154.72,150.19 
		-1154.72,176.18 -1124.26,176.18 	"/>
	<rect x="-1021.46" y="202" class="st3" width="36.21" height="25.07"/>
	<polygon class="st3" points="-993.23,176 -993.23,150.19 -1049.31,150.19 -1049.31,202 -1021.46,202 -1021.46,176 	"/>
	<polygon class="st3" points="-1021.46,227.06 -1049.31,227.06 -1049.31,280.17 -970.02,280.17 -970.02,254.36 -1021.46,254.36 	"/>
	<rect x="-953.82" y="231.34" class="st3" width="27.85" height="48.84"/>
	<path class="st3" d="M-893.28,256.77v23.4h27.86v-24.14c0-14.12-3.72-25.26-10.22-33.43c10.22-7.61,15.23-19.13,15.23-32.31
		c0-23.03-15.05-40.11-46.24-40.11h-47.16v56.08h27.85V176h18.94c13.55,0,19.68,6.31,19.68,14.67c0,8.54-5.57,15.59-19.12,15.59
		h-19.5v25.07h12.44C-900.15,231.34-893.28,237.46-893.28,256.77z"/>
	<rect x="-732.65" y="150.19" class="st3" width="27.86" height="129.99"/>
	<polygon class="st3" points="-657.3,280.17 -629.44,280.17 -629.44,176.18 -598.99,176.18 -598.99,150.19 -687.76,150.19 
		-687.76,176.18 -657.3,176.18 	"/>
	<path class="st3" d="M-345.16,190.3c0-23.03-15.04-40.11-46.24-40.11h-47.16v56.08h27.85V176h18.94c13.55,0,19.68,6.31,19.68,14.67
		c0,8.54-5.57,15.59-19.13,15.59h-19.49v25.07h12.44c13.37,0,20.24,6.13,20.24,25.44v23.4h27.85v-24.14
		c0-14.12-3.72-25.26-10.22-33.43C-350.17,214.99-345.16,203.48-345.16,190.3z"/>
	<rect x="-438.56" y="231.34" class="st3" width="27.85" height="48.84"/>
	<rect x="-328.65" y="150.19" class="st3" width="27.85" height="129.99"/>
	<path class="st3" d="M-216.7,147.4c-40.11,0-70.01,29.53-70.01,67.78c0,38.26,30.08,67.78,70.01,67.78c40.11,0,70-29.53,70-67.78
		C-146.7,176.93-176.6,147.4-216.7,147.4z M-216.7,256.96c-23.96,0-42.16-17.64-42.16-41.79c0-24.32,18.2-41.78,42.16-41.78
		c23.95,0,42.15,17.64,42.15,41.78C-174.55,239.32-192.75,256.96-216.7,256.96z"/>
	<path class="st3" d="M-108.98,183.24c0-5.94,4.45-9.47,10.58-9.47c7.25,0,12.26,4.27,14.12,13.55l26-7.61
		c-4.08-19.13-17.64-32.68-41.04-32.68c-21.17,0-37.88,13.18-37.88,35.28c0,36.21,52.93,44.01,52.93,62.21
		c0,7.8-6.13,12.07-13.19,12.07c-9.28,0-15.23-5.94-17.27-15.97l-26.56,8.35c4.64,19.13,19.5,33.99,44.38,33.99
		c22.66,0,40.85-14.49,40.85-38.62C-56.06,207.57-108.98,200.51-108.98,183.24z"/>
	<path class="st3" d="M-1084.07,311.7h-42.52v129.99h42.52c43.26,0,68.52-26.92,68.52-65C-1015.55,339-1040.81,311.7-1084.07,311.7z
		 M-1086.68,415.69h-12.07V337.7h12.07c30.08,0,43.27,16.71,43.27,38.99C-1043.41,398.98-1056.59,415.69-1086.68,415.69z"/>
	<rect x="-1001.48" y="311.7" class="st3" width="27.85" height="129.99"/>
	<path class="st3" d="M-854.17,364.62h-39.65v25.07h39.55c-3.71,18.75-18.38,28.78-35.84,28.78c-23.4,0-41.6-17.64-41.6-41.79
		c0-24.32,18.2-41.78,41.6-41.78c12.81,0,23.4,5.2,30.27,13.74l18.94-18.94c-11.33-13.18-28.78-20.8-48.65-20.8
		c-40.11,0-70.01,29.53-70.01,67.78c0,38.26,30.08,67.78,70.01,67.78c34.54,0,59.61-23.03,64.99-54.78h-29.61V364.62z"/>
	<rect x="-811.31" y="311.7" class="st3" width="27.85" height="129.99"/>
	<polygon class="st3" points="-766.73,337.7 -736.27,337.7 -736.27,441.69 -708.42,441.69 -708.42,337.7 -677.96,337.7 
		-677.96,311.7 -766.73,311.7 	"/>
	<rect x="-564.83" y="311.7" class="st3" width="27.85" height="129.99"/>
	<path class="st3" d="M-493.77,344.75c0-5.94,4.45-9.47,10.58-9.47c7.25,0,12.26,4.27,14.12,13.55l26-7.61
		c-4.08-19.13-17.64-32.68-41.04-32.68c-21.17,0-37.88,13.18-37.88,35.28c0,36.21,52.93,44.01,52.93,62.21
		c0,7.8-6.13,12.07-13.19,12.07c-9.28,0-15.23-5.94-17.27-15.97l-26.56,8.35c4.64,19.13,19.5,33.99,44.38,33.99
		c22.66,0,40.85-14.49,40.85-38.62C-440.85,369.08-493.77,362.03-493.77,344.75z"/>
	<path class="st3" d="M-641.51,365.69v-1.47v-7.98v-1.82c0-14.49,6.31-19.5,14.11-19.5c7.8,0,14.11,5.01,14.11,19.5v1.82v7.98v1.47
		h27.85v-1.47v-7.98v-1.82c0-30.27-20.05-45.5-41.97-45.5c-22.66,0-41.97,15.23-41.97,45.5v1.82v7.98v24.84v2.07v50.04h27.86v-50.04
		h28.22v-25.44H-641.51z"/>
	<rect x="-613.29" y="391.13" class="st3" width="27.86" height="50.04"/>
	<path class="st3" d="M-452.55,215.18c0-38.25-29.9-67.78-70-67.78c-40.11,0-70.01,29.53-70.01,67.78
		c0,38.26,30.09,67.78,70.01,67.78C-482.44,282.96-452.55,253.43-452.55,215.18z M-564.71,215.18c0-24.32,18.2-41.78,42.15-41.78
		c23.95,0,42.15,17.64,42.15,41.78c0,24.14-18.2,41.79-42.15,41.79C-546.51,256.96-564.71,239.32-564.71,215.18z"/>
	<polygon class="st3" points="-495.37,111.78 -470.5,111.78 -470.5,85.53 -496.75,85.53 -496.75,110.65 -521.62,110.65 
		-521.62,136.9 -495.37,136.9 	"/>
	<rect x="-843.67" y="231.34" class="st3" width="27.85" height="48.84"/>
	<path class="st3" d="M-755.28,280.17v-24.14c0-14.12-3.71-25.26-10.22-33.43c10.22-7.61,15.23-19.13,15.23-32.31
		c0-23.03-15.05-40.11-46.24-40.11h-47.16v56.08h27.85V176h18.94c13.55,0,19.68,6.31,19.68,14.67c0,8.54-5.57,15.59-19.12,15.59
		h-19.5v25.07h12.44c13.37,0,20.24,6.13,20.24,25.44v23.4H-755.28z"/>
	<rect x="-423.57" y="415.58" class="st3" width="25.69" height="25.69"/>
</g>
<g>
	<g>
		<polygon class="st4" points="66.13,-286.15 93.99,-286.15 93.99,-390.14 124.44,-390.14 124.44,-416.14 35.67,-416.14 
			35.67,-390.14 66.13,-390.14 		"/>
		<rect x="168.93" y="-364.33" class="st4" width="36.21" height="25.07"/>
		<polygon class="st4" points="197.16,-390.33 197.16,-416.14 141.08,-416.14 141.08,-364.33 168.93,-364.33 168.93,-390.33 		"/>
		<polygon class="st4" points="168.93,-339.27 141.08,-339.27 141.08,-286.15 220.37,-286.15 220.37,-311.97 168.93,-311.97 		"/>
		<rect x="236.58" y="-334.99" class="st4" width="27.85" height="48.84"/>
		<path class="st4" d="M297.11-309.55v23.4h27.86v-24.14c0-14.12-3.72-25.26-10.22-33.43c10.22-7.61,15.23-19.13,15.23-32.31
			c0-23.03-15.05-40.11-46.24-40.11h-47.16v56.08h27.85v-30.27h18.94c13.55,0,19.68,6.31,19.68,14.67c0,8.54-5.57,15.59-19.12,15.59
			h-19.5v25.07h12.44C290.24-334.99,297.11-328.86,297.11-309.55z"/>
		<rect x="457.75" y="-416.14" class="st4" width="27.86" height="129.99"/>
		<polygon class="st4" points="533.09,-286.15 560.95,-286.15 560.95,-390.14 591.4,-390.14 591.4,-416.14 502.63,-416.14 
			502.63,-390.14 533.09,-390.14 		"/>
		<path class="st4" d="M845.24-376.03c0-23.03-15.04-40.11-46.24-40.11h-47.16v56.08h27.85v-30.27h18.94
			c13.55,0,19.68,6.31,19.68,14.67c0,8.54-5.57,15.59-19.13,15.59h-19.49v25.07h12.44c13.37,0,20.24,6.13,20.24,25.44v23.4h27.85
			v-24.14c0-14.12-3.72-25.26-10.22-33.43C840.22-351.33,845.24-362.85,845.24-376.03z"/>
		<rect x="751.83" y="-334.99" class="st4" width="27.85" height="48.84"/>
		<rect x="861.75" y="-416.14" class="st4" width="27.85" height="129.99"/>
		<path class="st4" d="M973.69-418.93c-40.11,0-70.01,29.53-70.01,67.78c0,38.26,30.08,67.78,70.01,67.78c40.11,0,70-29.53,70-67.78
			C1043.69-389.4,1013.8-418.93,973.69-418.93z M973.69-309.36c-23.96,0-42.16-17.64-42.16-41.79c0-24.32,18.2-41.78,42.16-41.78
			c23.95,0,42.15,17.64,42.15,41.78C1015.84-327.01,997.64-309.36,973.69-309.36z"/>
		<path class="st4" d="M1081.41-383.09c0-5.94,4.45-9.47,10.58-9.47c7.25,0,12.26,4.27,14.12,13.55l26-7.61
			c-4.08-19.13-17.64-32.68-41.04-32.68c-21.17,0-37.88,13.18-37.88,35.28c0,36.21,52.93,44.01,52.93,62.21
			c0,7.8-6.13,12.07-13.19,12.07c-9.28,0-15.23-5.94-17.27-15.97l-26.56,8.35c4.64,19.13,19.5,33.99,44.38,33.99
			c22.66,0,40.85-14.49,40.85-38.62C1134.33-358.76,1081.41-365.82,1081.41-383.09z"/>
		<path class="st4" d="M106.32-254.63H63.79v129.99h42.52c43.26,0,68.52-26.92,68.52-65C174.84-227.33,149.58-254.63,106.32-254.63z
			 M103.72-150.64H91.65v-77.99h12.07c30.08,0,43.27,16.71,43.27,38.99C146.99-167.35,133.8-150.64,103.72-150.64z"/>
		<rect x="188.91" y="-254.63" class="st4" width="27.85" height="129.99"/>
		<path class="st4" d="M336.22-201.71h-39.65v25.07h39.55c-3.71,18.75-18.38,28.78-35.84,28.78c-23.4,0-41.6-17.64-41.6-41.79
			c0-24.32,18.2-41.78,41.6-41.78c12.81,0,23.4,5.2,30.27,13.74l18.94-18.94c-11.33-13.18-28.78-20.8-48.65-20.8
			c-40.11,0-70.01,29.53-70.01,67.78c0,38.26,30.08,67.78,70.01,67.78c34.54,0,59.61-23.03,64.99-54.78h-29.61V-201.71z"/>
		<rect x="379.08" y="-254.63" class="st4" width="27.85" height="129.99"/>
		<polygon class="st4" points="423.66,-228.63 454.12,-228.63 454.12,-124.64 481.97,-124.64 481.97,-228.63 512.43,-228.63 
			512.43,-254.63 423.66,-254.63 		"/>
		<rect x="625.56" y="-254.63" class="st4" width="27.85" height="129.99"/>
		<path class="st4" d="M696.62-221.58c0-5.94,4.45-9.47,10.58-9.47c7.25,0,12.26,4.27,14.12,13.55l26-7.61
			c-4.08-19.13-17.64-32.68-41.04-32.68c-21.17,0-37.88,13.18-37.88,35.28c0,36.21,52.93,44.01,52.93,62.21
			c0,7.8-6.13,12.07-13.19,12.07c-9.28,0-15.23-5.94-17.27-15.97l-26.56,8.35c4.64,19.13,19.5,33.99,44.38,33.99
			c22.66,0,40.85-14.49,40.85-38.62C749.54-197.25,696.62-204.3,696.62-221.58z"/>
		<path class="st4" d="M548.88-200.64v-1.47v-7.98v-1.82c0-14.49,6.31-19.5,14.11-19.5c7.8,0,14.11,5.01,14.11,19.5v1.82v7.98v1.47
			h27.85v-1.47v-7.98v-1.82c0-30.27-20.05-45.5-41.97-45.5c-22.66,0-41.97,15.23-41.97,45.5v1.82v7.98v24.84v2.07v50.04h27.86
			v-50.04h28.22v-25.44H548.88z"/>
		<rect x="577.11" y="-175.2" class="st4" width="27.86" height="50.04"/>
		<path class="st4" d="M737.85-351.15c0-38.25-29.9-67.78-70-67.78c-40.11,0-70.01,29.53-70.01,67.78
			c0,38.26,30.09,67.78,70.01,67.78C707.95-283.37,737.85-312.9,737.85-351.15z M625.69-351.15c0-24.32,18.2-41.78,42.15-41.78
			c23.95,0,42.15,17.64,42.15,41.78c0,24.14-18.2,41.79-42.15,41.79C643.88-309.36,625.69-327.01,625.69-351.15z"/>
		<polygon class="st4" points="695.03,-454.55 719.89,-454.55 719.89,-480.8 693.64,-480.8 693.64,-455.68 668.78,-455.68 
			668.78,-429.43 695.03,-429.43 		"/>
		<rect x="346.72" y="-334.99" class="st4" width="27.85" height="48.84"/>
		<path class="st4" d="M435.11-286.15v-24.14c0-14.12-3.71-25.26-10.22-33.43c10.22-7.61,15.23-19.13,15.23-32.31
			c0-23.03-15.05-40.11-46.24-40.11h-47.16v56.08h27.85v-30.27h18.94c13.55,0,19.68,6.31,19.68,14.67c0,8.54-5.57,15.59-19.12,15.59
			h-19.5v25.07h12.44c13.37,0,20.24,6.13,20.24,25.44v23.4H435.11z"/>
		<rect x="766.83" y="-150.74" class="st4" width="25.69" height="25.69"/>
	</g>
</g>
<g>
	<g>
		<polygon class="st5" points="66.13,280.17 93.99,280.17 93.99,176.18 124.44,176.18 124.44,150.19 35.67,150.19 35.67,176.18 
			66.13,176.18 		"/>
		<rect x="168.93" y="202" class="st5" width="36.21" height="25.07"/>
		<polygon class="st5" points="197.16,176 197.16,150.19 141.08,150.19 141.08,202 168.93,202 168.93,176 		"/>
		<polygon class="st5" points="168.93,227.06 141.08,227.06 141.08,280.17 220.37,280.17 220.37,254.36 168.93,254.36 		"/>
		<rect x="236.58" y="231.34" class="st5" width="27.85" height="48.84"/>
		<path class="st5" d="M297.11,256.77v23.4h27.86v-24.14c0-14.12-3.72-25.26-10.22-33.43c10.22-7.61,15.23-19.13,15.23-32.31
			c0-23.03-15.05-40.11-46.24-40.11h-47.16v56.08h27.85V176h18.94c13.55,0,19.68,6.31,19.68,14.67c0,8.54-5.57,15.59-19.12,15.59
			h-19.5v25.07h12.44C290.24,231.34,297.11,237.46,297.11,256.77z"/>
		<rect x="457.75" y="150.19" class="st5" width="27.86" height="129.99"/>
		<polygon class="st5" points="533.09,280.17 560.95,280.17 560.95,176.18 591.4,176.18 591.4,150.19 502.63,150.19 502.63,176.18 
			533.09,176.18 		"/>
		<path class="st5" d="M845.24,190.3c0-23.03-15.04-40.11-46.24-40.11h-47.16v56.08h27.85V176h18.94c13.55,0,19.68,6.31,19.68,14.67
			c0,8.54-5.57,15.59-19.13,15.59h-19.49v25.07h12.44c13.37,0,20.24,6.13,20.24,25.44v23.4h27.85v-24.14
			c0-14.12-3.72-25.26-10.22-33.43C840.22,214.99,845.24,203.48,845.24,190.3z"/>
		<rect x="751.83" y="231.34" class="st5" width="27.85" height="48.84"/>
		<rect x="861.75" y="150.19" class="st5" width="27.85" height="129.99"/>
		<path class="st5" d="M973.69,147.4c-40.11,0-70.01,29.53-70.01,67.78c0,38.26,30.08,67.78,70.01,67.78c40.11,0,70-29.53,70-67.78
			C1043.69,176.93,1013.8,147.4,973.69,147.4z M973.69,256.96c-23.96,0-42.16-17.64-42.16-41.79c0-24.32,18.2-41.78,42.16-41.78
			c23.95,0,42.15,17.64,42.15,41.78C1015.84,239.32,997.64,256.96,973.69,256.96z"/>
		<path class="st5" d="M1081.41,183.24c0-5.94,4.45-9.47,10.58-9.47c7.25,0,12.26,4.27,14.12,13.55l26-7.61
			c-4.08-19.13-17.64-32.68-41.04-32.68c-21.17,0-37.88,13.18-37.88,35.28c0,36.21,52.93,44.01,52.93,62.21
			c0,7.8-6.13,12.07-13.19,12.07c-9.28,0-15.23-5.94-17.27-15.97l-26.56,8.35c4.64,19.13,19.5,33.99,44.38,33.99
			c22.66,0,40.85-14.49,40.85-38.62C1134.33,207.57,1081.41,200.51,1081.41,183.24z"/>
		<path class="st5" d="M106.32,311.7H63.79v129.99h42.52c43.26,0,68.52-26.92,68.52-65C174.84,339,149.58,311.7,106.32,311.7z
			 M103.72,415.69H91.65V337.7h12.07c30.08,0,43.27,16.71,43.27,38.99C146.99,398.98,133.8,415.69,103.72,415.69z"/>
		<rect x="188.91" y="311.7" class="st5" width="27.85" height="129.99"/>
		<path class="st5" d="M336.22,364.62h-39.65v25.07h39.55c-3.71,18.75-18.38,28.78-35.84,28.78c-23.4,0-41.6-17.64-41.6-41.79
			c0-24.32,18.2-41.78,41.6-41.78c12.81,0,23.4,5.2,30.27,13.74l18.94-18.94c-11.33-13.18-28.78-20.8-48.65-20.8
			c-40.11,0-70.01,29.53-70.01,67.78c0,38.26,30.08,67.78,70.01,67.78c34.54,0,59.61-23.03,64.99-54.78h-29.61V364.62z"/>
		<rect x="379.08" y="311.7" class="st5" width="27.85" height="129.99"/>
		<polygon class="st5" points="423.66,337.7 454.12,337.7 454.12,441.69 481.97,441.69 481.97,337.7 512.43,337.7 512.43,311.7 
			423.66,311.7 		"/>
		<rect x="625.56" y="311.7" class="st5" width="27.85" height="129.99"/>
		<path class="st5" d="M696.62,344.75c0-5.94,4.45-9.47,10.58-9.47c7.25,0,12.26,4.27,14.12,13.55l26-7.61
			c-4.08-19.13-17.64-32.68-41.04-32.68c-21.17,0-37.88,13.18-37.88,35.28c0,36.21,52.93,44.01,52.93,62.21
			c0,7.8-6.13,12.07-13.19,12.07c-9.28,0-15.23-5.94-17.27-15.97l-26.56,8.35c4.64,19.13,19.5,33.99,44.38,33.99
			c22.66,0,40.85-14.49,40.85-38.62C749.54,369.08,696.62,362.03,696.62,344.75z"/>
		<path class="st5" d="M548.88,365.69v-1.47v-7.98v-1.82c0-14.49,6.31-19.5,14.11-19.5c7.8,0,14.11,5.01,14.11,19.5v1.82v7.98v1.47
			h27.85v-1.47v-7.98v-1.82c0-30.27-20.05-45.5-41.97-45.5c-22.66,0-41.97,15.23-41.97,45.5v1.82v7.98v24.84v2.07v50.04h27.86
			v-50.04h28.22v-25.44H548.88z"/>
		<rect x="577.11" y="391.13" class="st5" width="27.86" height="50.04"/>
		<path class="st5" d="M737.85,215.18c0-38.25-29.9-67.78-70-67.78c-40.11,0-70.01,29.53-70.01,67.78
			c0,38.26,30.09,67.78,70.01,67.78C707.95,282.96,737.85,253.43,737.85,215.18z M625.69,215.18c0-24.32,18.2-41.78,42.15-41.78
			c23.95,0,42.15,17.64,42.15,41.78c0,24.14-18.2,41.79-42.15,41.79C643.88,256.96,625.69,239.32,625.69,215.18z"/>
		<polygon class="st5" points="695.03,111.78 719.89,111.78 719.89,85.53 693.64,85.53 693.64,110.65 668.78,110.65 668.78,136.9 
			695.03,136.9 		"/>
		<rect x="346.72" y="231.34" class="st5" width="27.85" height="48.84"/>
		<path class="st5" d="M435.11,280.17v-24.14c0-14.12-3.71-25.26-10.22-33.43c10.22-7.61,15.23-19.13,15.23-32.31
			c0-23.03-15.05-40.11-46.24-40.11h-47.16v56.08h27.85V176h18.94c13.55,0,19.68,6.31,19.68,14.67c0,8.54-5.57,15.59-19.12,15.59
			h-19.5v25.07h12.44c13.37,0,20.24,6.13,20.24,25.44v23.4H435.11z"/>
		<rect x="766.83" y="415.58" class="st5" width="25.69" height="25.69"/>
	</g>
</g>
</svg>
