<?xml version="1.0" encoding="utf-8"?>
<!-- Generator: Adobe Illustrator 25.0.0, SVG Export Plug-In . SVG Version: 6.00 Build 0)  -->
<svg version="1.1" id="Camada_1" xmlns="http://www.w3.org/2000/svg" xmlns:xlink="http://www.w3.org/1999/xlink" x="0px" y="0px"
	 viewBox="0 0 2440.74 992.96" style="enable-background:new 0 0 2440.74 992.96;" xml:space="preserve">
<style type="text/css">
	.st0{fill:#F0F6F0;}
</style>
<g>
	<g>
		<g>
			<g>
				<polygon class="st0" points="145.25,527.92 202.96,527.92 202.96,312.45 266.06,312.45 266.06,258.58 82.14,258.58 
					82.14,312.45 145.25,312.45 				"/>
				<rect x="358.26" y="365.93" class="st0" width="75.03" height="51.94"/>
				<polygon class="st0" points="416.75,312.06 416.75,258.58 300.54,258.58 300.54,365.93 358.26,365.93 358.26,312.06 				"/>
				<polygon class="st0" points="358.26,417.87 300.54,417.87 300.54,527.92 464.84,527.92 464.84,474.44 358.26,474.44 				"/>
				<rect x="498.42" y="426.73" class="st0" width="57.71" height="101.19"/>
				<path class="st0" d="M623.85,479.43v48.48h57.72V477.9c0-29.25-7.7-52.33-21.17-69.26c21.17-15.78,31.56-39.63,31.56-66.95
					c0-47.71-31.17-83.11-95.81-83.11h-97.73v116.19h57.71v-62.71h39.25c28.08,0,40.78,13.08,40.78,30.4
					c0,17.69-11.54,32.31-39.62,32.31h-40.4v51.95h25.77C609.62,426.73,623.85,439.42,623.85,479.43z"/>
				<rect x="956.7" y="258.58" class="st0" width="57.72" height="269.34"/>
				<polygon class="st0" points="1112.82,527.92 1170.53,527.92 1170.53,312.45 1233.63,312.45 1233.63,258.58 1049.71,258.58 
					1049.71,312.45 1112.82,312.45 				"/>
				<path class="st0" d="M1759.59,341.69c0-47.71-31.16-83.11-95.81-83.11h-97.73v116.19h57.71v-62.71h39.25
					c28.08,0,40.79,13.08,40.79,30.4c0,17.69-11.55,32.31-39.64,32.31h-40.39v51.95h25.77c27.71,0,41.95,12.7,41.95,52.71v48.48
					h57.71V477.9c0-29.25-7.7-52.33-21.17-69.26C1749.21,392.86,1759.59,369.01,1759.59,341.69z"/>
				<rect x="1566.06" y="426.73" class="st0" width="57.71" height="101.19"/>
				<rect x="1793.8" y="258.58" class="st0" width="57.71" height="269.34"/>
				<path class="st0" d="M2025.75,252.81c-83.12,0-145.06,61.18-145.06,140.44c0,79.27,62.33,140.45,145.06,140.45
					c83.11,0,145.05-61.18,145.05-140.45C2170.8,313.99,2108.86,252.81,2025.75,252.81z M2025.75,479.83
					c-49.64,0-87.35-36.56-87.35-86.58c0-50.4,37.7-86.57,87.35-86.57c49.63,0,87.34,36.55,87.34,86.57
					C2113.09,443.27,2075.38,479.83,2025.75,479.83z"/>
				<path class="st0" d="M2248.95,327.07c0-12.31,9.23-19.62,21.93-19.62c15.01,0,25.4,8.85,29.25,28.08l53.87-15.77
					c-8.46-39.64-36.55-67.72-85.04-67.72c-43.86,0-78.49,27.32-78.49,73.1c0,75.03,109.67,91.2,109.67,128.9
					c0,16.16-12.71,25.01-27.33,25.01c-19.24,0-31.55-12.31-35.78-33.09L2182,463.27c9.62,39.64,40.4,70.42,91.96,70.42
					c46.94,0,84.65-30.02,84.65-80.03C2358.61,377.48,2248.95,362.86,2248.95,327.07z"/>
				<path class="st0" d="M1537.08,393.24c0-79.26-61.95-140.44-145.05-140.44c-83.12,0-145.06,61.18-145.06,140.44
					c0,79.27,62.34,140.45,145.06,140.45C1475.13,533.69,1537.08,472.51,1537.08,393.24z M1304.68,393.24
					c0-50.4,37.7-86.57,87.35-86.57c49.63,0,87.34,36.56,87.34,86.57c0,50.03-37.7,86.58-87.34,86.58
					C1342.38,479.83,1304.68,443.27,1304.68,393.24z"/>
				<polygon class="st0" points="1448.35,178.99 1499.88,178.99 1499.88,124.6 1445.49,124.6 1445.49,176.65 1393.96,176.65 
					1393.96,231.04 1448.35,231.04 				"/>
				<rect x="726.65" y="426.73" class="st0" width="57.71" height="101.19"/>
				<path class="st0" d="M909.8,527.92V477.9c0-29.25-7.7-52.33-21.17-69.26c21.17-15.78,31.56-39.63,31.56-66.95
					c0-47.71-31.17-83.11-95.81-83.11h-97.73v116.19h57.71v-62.71h39.25c28.08,0,40.78,13.08,40.78,30.4
					c0,17.69-11.54,32.31-39.62,32.31h-40.4v51.95h25.77c27.71,0,41.94,12.7,41.94,52.71v48.48H909.8z"/>
			</g>
		</g>
		<g>
			<g>
				<path class="st0" d="M553.51,593.24H465.4v269.34h88.11c89.65,0,141.98-55.79,141.98-134.67
					C695.49,649.8,643.16,593.24,553.51,593.24z M548.12,808.72h-25.01V647.11h25.01c62.33,0,89.65,34.63,89.65,80.8
					C637.78,774.09,610.45,808.72,548.12,808.72z"/>
				<rect x="724.64" y="593.24" class="st0" width="57.71" height="269.34"/>
				<path class="st0" d="M1029.89,702.9h-82.16v51.95h81.96c-7.69,38.85-38.09,59.64-74.26,59.64c-48.48,0-86.19-36.55-86.19-86.58
					c0-50.4,37.7-86.57,86.19-86.57c26.55,0,48.48,10.77,62.72,28.47l39.25-39.25c-23.48-27.32-59.64-43.09-100.81-43.09
					c-83.12,0-145.06,61.18-145.06,140.44c0,79.27,62.33,140.45,145.06,140.45c71.56,0,123.51-47.71,134.66-113.5h-61.36V702.9z"/>
				<rect x="1118.69" y="593.24" class="st0" width="57.71" height="269.34"/>
				<polygon class="st0" points="1211.07,647.11 1274.18,647.11 1274.18,862.58 1331.89,862.58 1331.89,647.11 1395,647.11 
					1395,593.24 1211.07,593.24 				"/>
				<rect x="1629.41" y="593.24" class="st0" width="57.71" height="269.34"/>
				<path class="st0" d="M1776.65,661.73c0-12.31,9.23-19.62,21.93-19.62c15.01,0,25.4,8.85,29.25,28.08l53.87-15.77
					c-8.46-39.64-36.56-67.72-85.04-67.72c-43.86,0-78.49,27.32-78.49,73.1c0,75.03,109.67,91.2,109.67,128.9
					c0,16.16-12.71,25.01-27.33,25.01c-19.23,0-31.55-12.31-35.78-33.09l-55.02,17.31c9.62,39.64,40.4,70.42,91.96,70.42
					c46.94,0,84.65-30.02,84.65-80.03C1886.31,712.14,1776.65,697.52,1776.65,661.73z"/>
				<path class="st0" d="M1470.53,705.11v-3.04v-16.54v-3.77c0-30.02,13.08-40.4,29.24-40.4c16.16,0,29.24,10.39,29.24,40.4v3.77
					v16.54v3.04h57.71v-3.04v-16.54v-3.77c0-62.72-41.55-94.27-86.95-94.27c-46.94,0-86.96,31.55-86.96,94.27v3.77v16.54v51.47v4.28
					V861.5h57.72V757.83h58.48v-52.72H1470.53z"/>
				<rect x="1529.01" y="757.83" class="st0" width="57.72" height="103.68"/>
				<rect x="1922.12" y="808.49" class="st0" width="53.22" height="53.22"/>
			</g>
		</g>
	</g>
</g>
</svg>
