<svg xmlns="http://www.w3.org/2000/svg" xmlns:xlink="http://www.w3.org/1999/xlink" version="1.1" id="Camada_1" x="0px" y="0px" style="enable-background:new 0 0 841.89 595.28;" xml:space="preserve" viewBox="212.99 89.25 432.51 432.02">
<style type="text/css">
	.st0{fill:#222323;}
</style>
<g>
	<path class="st0" d="M644.12,282.02c-2.39-2.51-7.89-0.73-12-0.65c-2.76,0.05-3.33-0.92-3.24-3.43c0.17-5.32,0.17-10.66,0.01-15.99   c-0.12-4.11,1.83-9.53-0.81-11.92c-2.23-2.02-7.59-0.91-11.52-0.63c-3.38,0.24-3.77-1.2-3.68-4.02c0.19-5.49,0.06-10.99,0.06-16.49   c0-11.51,0-11.69-11.45-11.47c-3.71,0.07-4.97-0.8-4.63-4.61c0.33-3.6,1.31-8.46-0.52-10.6c-2.18-2.54-7.2-1.01-10.92-0.76   c-3.89,0.25-4.83-1.06-4.55-4.7c0.28-3.6,1.27-8.49-0.58-10.57c-2.2-2.47-7.2-0.88-10.95-0.74c-3.35,0.13-4.9-0.57-4.44-4.26   c0.32-2.62-0.13-5.34,0.11-7.98c0.28-2.98-0.53-4.03-3.76-3.93c-8.32,0.26-16.66-0.01-24.98,0.14c-2.56,0.05-3.55-0.6-3.36-3.3   c0.23-3.31-0.07-6.66,0.1-9.99c0.11-2.21-0.64-2.86-2.82-2.81c-5.83,0.13-11.66,0.13-17.49,0.01c-3.78-0.07-8.92,1.66-10.96-0.74   c-1.92-2.27-0.96-7.27-0.68-11.03c0.28-3.66-1.07-4.29-4.44-4.27c-25.98,0.14-51.97,0.04-77.95,0.12   c-4.44,0.01-10.14-1.86-12.92,0.85c-2.12,2.07-0.84,7.85-0.67,11.97c0.12,2.85-1.07,3.25-3.49,3.18   c-5.33-0.15-10.66-0.17-15.99-0.01c-4.1,0.13-9.53-1.86-11.91,0.84c-2.01,2.29-0.78,7.6-0.62,11.55c0.11,2.79-0.68,3.69-3.55,3.62   c-8.32-0.19-16.66-0.01-24.98-0.1c-2.26-0.02-3.65,0.07-3.61,3.06c0.06,4.24,1.98,10.09-0.87,12.32   c-2.71,2.12-8.28,0.58-12.59,0.65c-0.83,0.01-1.66,0.04-2.5,0.06c-0.21,0.23-0.42,0.47-0.62,0.7c-1.03,5.16-1.9,10.32,0.75,15.3   c1.62,1.5,3.65,1.4,5.62,1.41c9.24,0.03,8.84-0.51,8.82,9.02c0,1.99,0.04,3.99,1.56,5.57c1.63,1.45,3.65,1.4,5.62,1.41   c9.15,0.03,8.84-0.52,8.81,9.02c-0.01,1.99,0.05,3.99,1.56,5.56c2.75,2.13,6,1.49,9.03,1.37c4.09-0.16,5.54,1.52,5.44,5.51   c-0.08,3.17-0.9,6.64,1.76,9.35c5.22,1.93,10.43,2,15.62-0.09c0.02,5.22,0.04,10.43,0.06,15.65c-5.24,0.02-10.47,0.05-15.71,0.07   c1.9-5.26,2.09-10.51-0.12-15.75c-2.48-2.27-5.55-1.59-8.44-1.67c-5.91-0.16-6.05-0.3-6.23-6.07c-0.09-2.89,0.62-5.96-1.55-8.48   c-2.59-2.07-5.67-1.34-8.58-1.44c-5.5-0.19-5.69-0.37-5.87-6.01c-0.09-2.91,0.63-6-1.54-8.54c-2.75-2.16-6.02-1.51-9.07-1.39   c-4.12,0.16-5.58-1.54-5.44-5.54c0.1-3.05,0.78-6.32-1.47-9.04c-4.97-2.46-10.08-1.7-15.21-0.65c-0.23,0.21-0.47,0.41-0.7,0.61   c-0.02,4.66,1.34,9.95-0.41,13.83c-2.33,5.18-8.33,1.3-12.65,2.08c-2.25,0.4-3.12,0.75-3.05,3.16c0.17,5.49,0.08,10.99,0.04,16.49   c-0.03,3.97,1.31,9.1-0.65,11.6c-2.1,2.67-7.46,0.54-11.39,0.88c-0.33,0.03-0.67,0.05-1,0c-2.5-0.4-3.05,0.8-3,3.1   c0.14,5.83,0.05,11.66,0.05,17.49c0,11.38,0,11.38-11.12,11.41c-0.5,0-1.01,0.06-1.5-0.01c-2.47-0.35-3.45,0.4-3.44,3.18   c0.1,29.81,0.09,59.62,0.01,89.44c-0.01,2.5,0.46,3.63,3.24,3.41c3.15-0.25,6.33,0.09,9.49-0.1c2.55-0.16,3.49,0.57,3.38,3.28   c-0.22,5.15-0.16,10.33-0.03,15.49c0.1,4.28-1.8,9.76,0.75,12.51c2.36,2.55,7.87,0.72,11.98,0.68c2.68-0.03,3.34,0.82,3.29,3.38   c-0.15,8.32,0.03,16.66-0.11,24.98c-0.04,2.58,0.27,3.87,3.39,3.8c4.09-0.09,9.7-1.92,11.9,0.74c2.07,2.51,0.77,7.91,0.71,12.03   c-0.04,2.26,0.41,3.28,2.97,3.18c4.14-0.16,9.64-1.52,12.09,0.55c2.85,2.41,0.85,8.09,0.91,12.34c0.04,2.36,0.63,3.17,3.07,3.1   c4.13-0.13,9.67-1.48,12.05,0.61c2.77,2.44,0.85,8.11,0.87,12.37c0.01,2.48,0.83,3.07,3.15,3.01c5.66-0.15,11.33-0.08,16.99-0.03   c3.8,0.03,8.73-1.22,11.09,0.67c2.5,2.01,1,7.19,0.71,10.91c-0.31,4.04,1.29,4.58,4.78,4.47c7.99-0.25,15.99,0.01,23.98-0.13   c2.51-0.05,3.62,0.47,3.41,3.25c-0.25,3.31,0.05,6.66-0.1,9.99c-0.1,2.13,0.53,2.86,2.77,2.86c30.15-0.07,60.3-0.07,90.44,0   c2.15,0,2.95-0.56,2.84-2.79c-0.17-3.49,0.08-7-0.09-10.49c-0.11-2.22,0.67-2.85,2.83-2.8c5.49,0.13,10.99,0.15,16.49,0.01   c4.11-0.11,9.53,1.81,11.94-0.78c2.03-2.18,0.93-7.56,0.68-11.5c-0.21-3.28,1.04-3.82,3.95-3.75c8.16,0.19,16.32-0.03,24.48,0.12   c2.66,0.05,3.89-0.43,3.71-3.46c-0.23-3.97-1.47-9.21,0.5-11.62c2.33-2.84,7.78-0.84,11.86-0.88c2.76-0.03,3.77-0.68,3.63-3.57   c-0.2-3.96-1.43-9.24,0.56-11.59c2.35-2.77,7.8-0.84,11.88-0.83c2.88,0,3.66-0.88,3.55-3.66c-0.16-3.96-1.39-9.27,0.62-11.55   c2.38-2.7,7.82-0.84,11.91-0.78c3.01,0.04,3.51-1.08,3.46-3.74c-0.15-8.16,0.07-16.32-0.12-24.48c-0.07-2.92,0.46-4.28,3.75-3.93   c2.96,0.32,6-0.08,8.98,0.11c2.53,0.16,3.5-0.54,3.39-3.26c-0.21-5.65-0.14-11.32-0.04-16.99c0.07-3.79-1.61-8.71,0.69-11.04   c2.31-2.34,7.27-0.86,11.02-0.64c3.57,0.21,4.36-0.92,4.34-4.39c-0.16-26.15-0.05-52.3-0.12-78.44   C644.87,290.23,646.71,284.74,644.12,282.02z M541.72,266.83c5.11,0.21,5.58,0.59,5.66,5.8c0.09,6.1-0.02,12.2,0.05,18.31   c0.03,2.17-0.14,4.41,1.29,6.28c-4.2,0.01-8.4-0.12-12.58,0.12c-2.73,0.16-3.27-0.87-3.23-3.38c0.15-9.46,0.09-18.92,0.11-28.38   c0.01,0.01,0.01,0.02,0.02,0.03C535.75,267.32,538.8,266.71,541.72,266.83z M523.4,250.8c7.88,0.18,7.86,0.17,8.07,8.27   c0.06,2.13-0.14,4.35,1.28,6.17c-4.35,0.02-8.7-0.06-13.04,0.1c-2.17,0.08-2.86-0.62-2.78-2.78c0.16-4.33,0.09-8.68,0.1-13.01   C518.94,250.95,521.21,250.75,523.4,250.8z M508.86,234.87c6.2,0.05,6.41,0.31,6.57,6.36c0.07,2.72-0.41,5.55,1.27,8.02   c-9.47,0.02-18.94-0.04-28.41,0.11c-2.5,0.04-3.53-0.5-3.38-3.23c0.24-4.17,0.11-8.37,0.12-12.55c1.96,1.42,4.27,1.24,6.5,1.26   C497.31,234.9,503.09,234.82,508.86,234.87z M499.45,339.32c0.02,3.18-1.45,4.36-4.53,4.45c-3.32,0.1-6.82-0.75-9.89,1.26   c0-10.49,0-20.98,0-31.48c3,1.89,6.38,1.17,9.6,1.21c3.28,0.04,4.87,1.25,4.83,4.69C499.38,326.07,499.41,332.69,499.45,339.32z    M467.5,370.91c-0.04,3.28-1.25,4.87-4.69,4.83c-6.62-0.08-13.25-0.05-19.87-0.01c-3.18,0.02-4.36-1.45-4.45-4.53   c-0.1-3.32,0.75-6.82-1.26-9.89c10.49,0,20.99,0,31.48,0C466.82,364.31,467.53,367.69,467.5,370.91z M421.24,345.32   c4.34-0.02,8.68,0.06,13.02-0.1c2.17-0.08,2.86,0.62,2.78,2.78c-0.16,4.32-0.09,8.66-0.1,12.98c-1.83-1.33-3.98-1.21-6.08-1.22   c-8.72-0.02-8.35,0.24-8.38-8.59C422.48,349.15,422.57,347.05,421.24,345.32z M406.48,320c-0.1-3.9,1.53-5.3,5.33-5.27   c3.07,0.03,6.36,0.76,9.12-1.28c0,10.51,0,21.02,0,31.52c-3.02-1.89-6.42-1.18-9.66-1.21c-3.38-0.03-4.81-1.41-4.77-4.79   C406.59,332.65,406.65,326.32,406.48,320z M389.4,265.56c2.66,1.87,5.78,1.29,8.7,1.18c4.12-0.16,5.6,1.54,5.46,5.56   c-0.1,3.06-0.77,6.34,1.52,9.05c2.74,2.13,5.99,1.49,9.02,1.38c4.07-0.15,5.56,1.48,5.46,5.49c-0.08,3.17-0.9,6.64,1.75,9.36   c5.21,1.99,10.42,1.92,15.63-0.02c0,5.22,0,10.44-0.01,15.65c-5.23,0-10.45,0-15.68,0c0.05-0.04,0.09-0.07,0.14-0.11   c1.71-5.24,2.04-10.47-0.22-15.66c-2.64-2.36-5.89-1.55-8.94-1.66c-5.27-0.2-5.51-0.43-5.72-5.58c-0.13-3.04,0.71-6.28-1.55-8.97   c-2.59-2.07-5.67-1.34-8.58-1.44c-5.49-0.19-5.7-0.4-5.86-6.01C390.43,271,390.98,268.11,389.4,265.56z M438.49,287.38   c0.11-3.06,1.26-4.6,4.47-4.58c6.66,0.04,13.32,0.04,19.98,0c3.13-0.02,4.46,1.31,4.55,4.47c0.09,3.34-0.76,6.86,1.26,9.95   c-10.52,0-21.03,0-31.55,0C439.26,294.18,438.37,290.68,438.49,287.38z M484.75,313.21c-4.34,0.02-8.69-0.06-13.03,0.1   c-2.17,0.08-2.86-0.62-2.78-2.78c0.16-4.33,0.09-8.66,0.1-12.99c2.15,1.51,4.66,1.19,7.07,1.23c7.25,0.13,7.22,0.11,7.37,7.57   C483.53,308.7,483.22,311.15,484.75,313.21z M437.33,313.61c2.55,1.67,5.5,1.03,8.29,1.12c5.5,0.19,5.84,0.49,5.89,6.11   c0.01,1.33,0.02,2.66-0.1,3.99c-0.16,1.77-1.08,2.7-2.85,2.85c-1.33,0.12-2.66,0.11-4,0.1c-5.62-0.05-5.92-0.39-6.11-5.89   C438.36,319.1,439,316.16,437.33,313.61z M469.04,361.02c-0.02-4.34,0.06-8.68-0.1-13.02c-0.08-2.16,0.62-2.86,2.78-2.78   c4.32,0.16,8.66,0.09,12.99,0.1c-1.42,1.99-1.18,4.32-1.23,6.57c-0.16,7.7-0.14,7.68-8.07,7.87   C473.21,359.81,470.94,359.59,469.04,361.02z M427.9,218.83c16.8,0.1,33.6,0.08,50.39,0.01c3.96-0.02,5.21,1.77,5.17,5.46   c-0.04,3.01-0.62,6.19,1.27,8.94c-21.15,0-42.3,0-63.46,0c1.77-2.68,1.32-5.74,1.23-8.65C422.39,220.7,423.68,218.81,427.9,218.83z    M390.54,241.29c0.18-6.08,0.41-6.37,6.62-6.42c5.81-0.05,11.63,0.03,17.44-0.04c2.19-0.03,4.45,0.14,6.33-1.29   c0.01,4.2-0.12,8.4,0.12,12.58c0.16,2.73-0.87,3.27-3.38,3.23c-9.47-0.15-18.95-0.09-28.42-0.11   C390.96,246.81,390.46,243.98,390.54,241.29z M358.54,291.66c0.08-5.81,0.01-11.63,0.04-17.44c0.03-7.25,0.05-7.23,7.12-7.4   c2.48-0.06,5.09,0.31,7.26-1.33c0.02,9.49-0.04,18.98,0.11,28.47c0.04,2.5-0.5,3.53-3.23,3.38c-4.17-0.24-8.36-0.11-12.55-0.12   C358.52,295.56,358.51,293.59,358.54,291.66z M348.3,359.7c-5.15-0.22-5.66-0.6-5.69-5.86c-0.07-16.3-0.06-32.6-0.01-48.89   c0.02-5.59,0.46-5.91,5.92-6.12c2.86-0.11,5.86,0.5,8.43-1.3c0,21.15,0,42.3,0,63.44C354.27,359.21,351.22,359.83,348.3,359.7z    M364.25,391.7c-5.11-0.21-5.58-0.59-5.66-5.8c-0.09-6.1,0.02-12.2-0.05-18.31c-0.03-2.17,0.14-4.41-1.29-6.28   c4.2-0.01,8.4,0.12,12.58-0.12c2.73-0.16,3.27,0.87,3.23,3.38c-0.15,9.46-0.09,18.92-0.11,28.38c-0.01-0.01-0.01-0.02-0.02-0.03   C370.22,391.21,367.18,391.82,364.25,391.7z M382.58,407.73c-7.88-0.18-7.86-0.17-8.07-8.27c-0.06-2.13,0.14-4.35-1.28-6.17   c4.35-0.02,8.7,0.06,13.04-0.1c2.17-0.08,2.86,0.62,2.78,2.78c-0.16,4.33-0.09,8.67-0.1,13.01   C387.04,407.58,384.77,407.78,382.58,407.73z M397.12,423.67c-6.2-0.05-6.41-0.31-6.57-6.36c-0.07-2.72,0.41-5.55-1.27-8.02   c9.47-0.02,18.94,0.04,28.41-0.11c2.5-0.04,3.53,0.5,3.38,3.23c-0.24,4.17-0.11,8.37-0.12,12.55c-1.96-1.42-4.27-1.24-6.5-1.26   C408.66,423.63,402.89,423.71,397.12,423.67z M483.43,433.94c-0.22,5.15-0.6,5.66-5.86,5.69c-16.3,0.07-32.6,0.06-48.89,0.01   c-5.6-0.02-5.92-0.46-6.13-5.91c-0.11-2.86,0.49-5.86-1.3-8.44c21.15,0,42.3,0,63.45,0C482.93,427.97,483.55,431.02,483.43,433.94z    M515.42,417.99c-0.21,5.11-0.59,5.58-5.8,5.66c-6.1,0.09-12.2-0.02-18.31,0.05c-2.17,0.03-4.41-0.14-6.28,1.29   c-0.01-4.2,0.12-8.4-0.12-12.58c-0.16-2.73,0.87-3.27,3.38-3.23c9.46,0.15,18.92,0.09,28.38,0.11c-0.01,0.01-0.02,0.01-0.03,0.02   C514.93,412.02,515.55,415.07,515.42,417.99z M531.46,399.67c-0.18,7.88-0.17,7.86-8.27,8.07c-2.13,0.06-4.35-0.14-6.17,1.28   c-0.02-4.35,0.06-8.7-0.1-13.04c-0.08-2.16,0.62-2.86,2.78-2.78c4.33,0.16,8.68,0.09,13.01,0.1   C531.31,395.21,531.51,397.48,531.46,399.67z M547.4,385.13c-0.05,6.2-0.31,6.41-6.36,6.57c-2.72,0.07-5.55-0.41-8.02,1.27   c-0.02-9.47,0.04-18.94-0.11-28.41c-0.04-2.5,0.5-3.53,3.23-3.38c4.17,0.24,8.37,0.11,12.55,0.12c-1.42,1.96-1.24,4.27-1.26,6.5   C547.37,373.58,547.44,379.36,547.4,385.13z M563.37,353.58c-0.02,5.6-0.46,5.91-5.91,6.13c-2.86,0.11-5.86-0.49-8.44,1.3   c0-21.15,0-42.29,0-63.44c2.69,1.76,5.74,1.14,8.66,1.27c5.15,0.22,5.66,0.6,5.69,5.86C563.44,320.99,563.43,337.28,563.37,353.58z   "/>
	<path class="st0" d="M325.09,185.27c-0.04,0.02-0.08,0.04-0.12,0.06c0,0.02,0,0.04,0,0.06L325.09,185.27z"/>
	<path class="st0" d="M308.98,201.38l0.12-0.12c-0.02,0-0.05,0-0.07,0C309.01,201.3,309,201.34,308.98,201.38z"/>
	<path class="st0" d="M309.23,185.85c0.21,0.15,0.43,0.29,0.68,0.39c5.08,0.58,10.19,1.69,15.06-0.91   c0.02-11.96,0.12-23.92,0.01-35.88c-0.03-3.93,1.77-9.13-0.81-11.42c-2.17-1.93-7.27-0.81-11.05-0.61   c-3.15,0.17-4.43-0.61-4.17-4.02c0.28-3.78,1.4-8.82-0.5-11.11c-2.25-2.72-7.48-0.89-11.38-0.83c-3.23,0.05-4.33-0.8-4.11-4.11   c0.25-3.78,1.37-8.84-0.54-11.09c-2.27-2.67-7.49-0.9-11.39-0.79c-3.34,0.09-4.07-0.97-4.06-4.16c0.05-12.31-0.07-12.2-12.49-12.02   c-2.95,0.04-3.51,1-3.48,3.69c0.14,14.81,0.1,29.62,0.12,44.43c0.2,0.19,0.41,0.39,0.61,0.57c2.86,1.28,5.91,0.85,8.87,0.76   c3.6-0.11,5.16,1.24,5.06,4.94c-0.09,3.07-0.49,6.22,0.72,9.2c-2.73-1.71-5.88-1.01-8.84-1c-3.61,0.02-5.04-1.4-5.01-5.01   c0.02-3.18,0.83-6.6-1.43-9.46c-11.97-0.02-23.94-0.05-35.91-0.06c-12.4-0.01-12.32,0-12.17,12.41c0.03,2.71,0.58,3.81,3.52,3.65   c3.96-0.21,9.22-1.45,11.59,0.53c2.81,2.34,0.83,7.78,0.86,11.86c0.02,2.79,0.74,3.73,3.6,3.6c3.96-0.19,9.24-1.42,11.57,0.57   c2.76,2.36,0.83,7.79,0.82,11.88c-0.01,2.88,0.88,3.65,3.66,3.54c3.95-0.16,9.26-1.39,11.55,0.61c2.71,2.37,0.83,7.81,0.79,11.89   c-0.03,2.97,1.03,3.5,3.71,3.48c14.79-0.14,29.57-0.1,44.36-0.11C311.37,196.12,311.44,190.99,309.23,185.85z M283.52,167.87   c-3.61,0.02-5.04-1.4-5.01-5.01c0.02-2.95,0.71-6.09-0.98-8.81c0.05,0.03,0.09,0.07,0.14,0.09c3.08,1.04,6.28,0.63,9.42,0.61   c3.14-0.02,4.53,1.22,4.54,4.42c0.01,3.24-0.51,6.55,0.74,9.7C289.64,167.16,286.49,167.85,283.52,167.87z M299.52,183.86   c-3.61,0.02-5.04-1.4-5.01-5.01c0.02-2.95,0.71-6.09-0.98-8.81c0.06,0.03,0.1,0.08,0.16,0.1c3.05,1.03,6.2,0.66,9.3,0.6   c3.42-0.07,4.67,1.42,4.65,4.73c-0.01,3.15-0.54,6.39,0.78,9.43C305.67,183.14,302.5,183.85,299.52,183.86z"/>
	<path class="st0" d="M260.99,137.29c0.03,0.04,0.06,0.08,0.09,0.12c0.01,0,0.02,0,0.04,0L260.99,137.29z"/>
</g>
</svg>